<?xml version="1.0" encoding="UTF-8" standalone="no"?>
<!-- Created with Inkscape (http://www.inkscape.org/) -->

<svg
   xmlns:dc="http://purl.org/dc/elements/1.1/"
   xmlns:cc="http://creativecommons.org/ns#"
   xmlns:rdf="http://www.w3.org/1999/02/22-rdf-syntax-ns#"
   xmlns:svg="http://www.w3.org/2000/svg"
   xmlns="http://www.w3.org/2000/svg"
   xmlns:sodipodi="http://sodipodi.sourceforge.net/DTD/sodipodi-0.dtd"
   xmlns:inkscape="http://www.inkscape.org/namespaces/inkscape"
   width="668.4787"
   height="432.7182"
   id="svg44288"
   version="1.1"
   inkscape:version="0.48.3.1 r9886"
   sodipodi:docname="evilbox.svg">
  <defs
     id="defs44290">
    <inkscape:perspective
       sodipodi:type="inkscape:persp3d"
       inkscape:vp_x="64.999999 : 397.78767 : 1"
       inkscape:vp_y="0 : 1000 : 0"
       inkscape:vp_z="84.907276 : 515.64481 : 1"
       inkscape:persp3d-origin="334.23935 : 144.2394 : 1"
       id="perspective7631" />
  </defs>
  <sodipodi:namedview
     id="base"
     pagecolor="#ffffff"
     bordercolor="#666666"
     borderopacity="1.0"
     inkscape:pageopacity="0.0"
     inkscape:pageshadow="2"
     inkscape:zoom="0.5"
     inkscape:cx="-109.15457"
     inkscape:cy="286.19209"
     inkscape:document-units="px"
     inkscape:current-layer="g8469"
     showgrid="false"
     fit-margin-top="0"
     fit-margin-left="0"
     fit-margin-right="0"
     fit-margin-bottom="0"
     inkscape:window-width="1280"
     inkscape:window-height="748"
     inkscape:window-x="0"
     inkscape:window-y="31"
     inkscape:window-maximized="1"
     showguides="true"
     inkscape:guide-bbox="true" />
  <metadata
     id="metadata44293">
    <rdf:RDF>
      <cc:Work
         rdf:about="">
        <dc:format>image/svg+xml</dc:format>
        <dc:type
           rdf:resource="http://purl.org/dc/dcmitype/StillImage" />
        <dc:title />
      </cc:Work>
    </rdf:RDF>
  </metadata>
  <g
     inkscape:label="Layer 1"
     inkscape:groupmode="layer"
     id="layer1"
     transform="translate(-135.56322,-99.434632)">
    <g
       transform="matrix(0,1.2732029,-1.2732029,0,852.90355,-18.493305)"
       id="layer1-5">
      <g
         transform="translate(32.142857,50.714286)"
         id="g3961" />
      <g
         id="g6354"
         transform="matrix(0.87292113,0.57054744,-0.48786136,1.0208698,228.16831,-185.6481)">
        <g
           transform="matrix(-0.32764493,-0.58624889,0.68561038,-0.38317643,210.99139,484.96478)"
           id="layer1-56"
           inkscape:label="Layer 1">
          <g
             id="g8469">
            <path
               style="fill:#999999;fill-opacity:1;stroke:none"
               d="m 126.43787,-39.679592 160.16901,-64.801208 0,434.04581 -161.39168,-83.14116 z"
               id="path8830"
               inkscape:connector-curvature="0" />
            <path
               style="fill:#c2c2c2;fill-opacity:1;fill-rule:nonzero;stroke:none"
               d="m -169.16353,-39.06825 293.29227,0 0,284.88075 -293.29227,0 z"
               id="rect8800"
               inkscape:connector-curvature="0" />
            <path
               style="fill:#a86934;fill-opacity:1;stroke:none"
               d="m 149.4707,78.916647 106.77935,-41.253728 0,276.322121 -107.59446,-52.9293 z"
               id="path8830-0"
               inkscape:connector-curvature="0" />
            <g
               id="g8733"
               transform="matrix(0.8645542,0,0,0.8645542,-88.13324,35.764886)">
              <path
                 sodipodi:nodetypes="ssscs"
                 inkscape:connector-curvature="0"
                 id="path8703"
                 d="M 53.81429,139.47873 C 31.1731,140.12488 12.294986,122.29438 11.648837,99.653187 11.002688,77.011997 28.833192,58.133877 51.47438,57.487727 c 22.53389,-0.64309 41.36249,17.02156 42.16107,39.68808 0.65054,22.778653 -17.17997,41.656773 -39.82116,42.302923 z"
                 style="fill:#ffffff;fill-opacity:1;fill-rule:nonzero;stroke:#000000;stroke-width:3;stroke-miterlimit:4;stroke-opacity:1" />
              <path
                 style="fill:#000000;fill-opacity:1;fill-rule:nonzero;stroke:#000000;stroke-width:1.77118826;stroke-miterlimit:4;stroke-opacity:1"
                 d="m 86.545357,108.34398 c -2.209044,0.0576 -4.050937,-1.53298 -4.113977,-3.55276 -0.0631,-2.01978 1.676638,-3.70386 3.885682,-3.7615 2.198575,-0.0574 4.03563,1.51846 4.113553,3.5405 0.06352,2.03204 -1.676214,3.71612 -3.885258,3.77376 z"
                 id="path8705"
                 inkscape:connector-curvature="0"
                 sodipodi:nodetypes="ccscc" />
              <path
                 style="fill:#000000;fill-opacity:1;fill-rule:nonzero;stroke:#000000;stroke-width:2.94500661;stroke-miterlimit:4;stroke-opacity:1"
                 d="m 51.795016,109.69002 c -3.251304,0.10827 -5.96223,-2.87958 -6.055014,-6.67355 -0.09287,-3.793973 2.467702,-6.957367 5.719006,-7.065641 3.235895,-0.107761 5.9397,2.852292 6.054388,6.650511 0.09349,3.817 -2.467077,6.9804 -5.71838,7.08868 z"
                 id="path8705-1"
                 inkscape:connector-curvature="0"
                 sodipodi:nodetypes="scscs" />
              <path
                 sodipodi:nodetypes="cccccccccsc"
                 inkscape:connector-curvature="0"
                 id="path8730"
                 d="m 47.417366,138.78832 c -11.117766,-1.08466 -33.649353,0.66593 -33.649353,0.66593 l -15.141012,91.25795 29.698485,-74.95332 -11.313709,130.10765 33.941129,-82.7315 16.970561,87.68124 4.949739,-129.40054 91.216784,-33.23402 c 0,0 -69.296464,9.8995 -95.459424,10.60661 -26.16295,0.7071 -21.2132,0 -21.2132,0 z"
                 style="fill:#ffffff;fill-opacity:1;stroke:#000000;stroke-width:3;stroke-linecap:butt;stroke-linejoin:miter;stroke-miterlimit:4;stroke-opacity:1;stroke-dasharray:none" />
              <path
                 style="fill:none;stroke:#000000;stroke-width:3;stroke-linecap:butt;stroke-linejoin:miter;stroke-miterlimit:4;stroke-opacity:1;stroke-dasharray:none"
                 d="m 81.161538,116.94599 c 0,0 -15.300438,-5.69179 -22.401233,4.08465"
                 id="path8823"
                 inkscape:connector-curvature="0"
                 sodipodi:nodetypes="cc" />
              <path
                 style="fill:none;stroke:#000000;stroke-width:3;stroke-linecap:butt;stroke-linejoin:miter;stroke-miterlimit:4;stroke-opacity:1;stroke-dasharray:none"
                 d="m 42.037732,-6.1685723 c 0,0 -17.677666,-16.2634557 21.920314,-16.2634557 39.597984,0 -10.6066,33.941126 -10.6066,33.941126 l 0,15.556352"
                 id="path8825"
                 inkscape:connector-curvature="0"
                 sodipodi:nodetypes="cscc" />
            </g>
            <path
               style="fill:#ffffff;fill-opacity:1;fill-rule:nonzero;stroke:#000000;stroke-width:2.59366274;stroke-miterlimit:4;stroke-opacity:1"
               d="m -40.66331,74.446003 c -2.36243,0.06744 -4.33223,-1.793067 -4.39965,-4.155513 -0.0674,-2.362438 1.79307,-4.332238 4.15551,-4.399656 2.35125,-0.06708 4.31587,1.77608 4.39921,4.141164 0.0679,2.376788 -1.79261,4.346579 -4.15507,4.414005 z"
               id="path8827"
               inkscape:connector-curvature="0"
               sodipodi:nodetypes="ssscs" />
            <g
               id="g8870"
               transform="matrix(0.74071311,0.18386717,-0.20828703,0.83908907,65.181988,11.377864)">
              <rect
                 transform="translate(-170.0943,-105.83948)"
                 y="271.49786"
                 x="207.88939"
                 height="128.69344"
                 width="102.53048"
                 id="rect8850"
                 style="fill:#c7c7c7;fill-opacity:1;fill-rule:nonzero;stroke:none" />
              <path
                 transform="translate(-170.0943,-105.83948)"
                 inkscape:connector-curvature="0"
                 id="path8858"
                 d="m 221.32442,299.78213 c 2.12016,3.07146 6.29418,-3.92398 8.48528,-2.82843 0.69994,0.34997 -0.59408,3.64856 0,4.24264 2.14303,2.14303 18.40006,0 20.5061,0 3.37474,0 7.68316,7.2611 9.19239,4.24264 0.59098,-1.18196 -1.07458,-4.35585 0.7071,-4.94975 9.8035,-3.26783 21.51899,0 30.4056,0"
                 style="fill:none;stroke:#000000;stroke-width:1px;stroke-linecap:butt;stroke-linejoin:miter;stroke-opacity:1" />
              <path
                 transform="translate(-170.0943,-105.83948)"
                 inkscape:connector-curvature="0"
                 id="path8860"
                 d="m 226.27417,316.75269 c 14.85288,2.30397 23.71831,-1.31827 37.47666,2.12132 2.97264,0.74316 7.11496,6.27617 8.48528,3.53553 0.39738,-0.79475 -0.69262,-4.25712 0,-4.94974 1.80483,-1.80484 4.17678,1.73483 4.94975,2.12132 3.48325,1.74162 6.95193,-2.0419 9.19239,-3.53554"
                 style="fill:none;stroke:#000000;stroke-width:1px;stroke-linecap:butt;stroke-linejoin:miter;stroke-opacity:1" />
              <path
                 transform="translate(-170.0943,-105.83948)"
                 inkscape:connector-curvature="0"
                 id="path8862"
                 d="m 222.73864,340.79432 c 9.21313,0.66209 18.06577,-10.41255 28.99137,-4.94975 2.9877,1.49385 5.23965,5.0947 7.77818,6.36396 1.98357,0.99179 0.0516,-3.58715 0.7071,-4.24264 0.23177,-0.23176 4.28347,-0.22209 4.94975,0 5.02106,1.67369 10.31552,2.12132 16.97056,2.12132"
                 style="fill:none;stroke:#000000;stroke-width:1px;stroke-linecap:butt;stroke-linejoin:miter;stroke-opacity:1" />
              <path
                 transform="translate(-170.0943,-105.83948)"
                 inkscape:connector-curvature="0"
                 id="path8864"
                 d="m 229.8097,357.76488 c 4.86939,-3.84467 18.13214,5.90949 23.33453,0.70711 1.18004,-1.18004 1.50913,-7.24349 4.94974,-4.94975 3.02533,2.01689 6.67596,5.96885 9.19239,8.48528 1.53659,1.53659 2.77668,-4.24264 4.94975,-4.24264 4.57119,0 9.68881,2.19155 14.14214,0.70711"
                 style="fill:none;stroke:#000000;stroke-width:1px;stroke-linecap:butt;stroke-linejoin:miter;stroke-opacity:1" />
              <path
                 transform="translate(-170.0943,-105.83948)"
                 inkscape:connector-curvature="0"
                 id="path8866"
                 d="m 227.68838,378.27098 c 18.09048,-10.97415 40.80175,5.79715 57.98276,-5.65686"
                 style="fill:none;stroke:#000000;stroke-width:1px;stroke-linecap:butt;stroke-linejoin:miter;stroke-opacity:1" />
              <path
                 transform="translate(-170.0943,-105.83948)"
                 inkscape:connector-curvature="0"
                 id="path8868"
                 d="m 265.87215,393.12022 c 1.59361,-11.46261 8.53925,-0.70711 6.36396,-0.70711 -3.01846,0 2.63839,-7.07106 5.65685,-7.07106 0.53987,0 0.97949,13.05261 2.82843,5.65685 0.95598,-3.82392 6.86216,-12.22972 3.53553,-15.55635 -3.99883,-3.99884 -9.0892,12.8311 -6.36396,15.55635 5.9263,5.9263 19.21242,-4.1221 12.72793,-10.6066 -5.94084,-5.94084 -24.72632,-1.34695 -20.5061,11.31371"
                 style="fill:none;stroke:#000000;stroke-width:1px;stroke-linecap:butt;stroke-linejoin:miter;stroke-opacity:1" />
            </g>
            <g
               id="g8566"
               transform="matrix(0.73015029,0,0,0.73015029,75.680754,104.74914)">
              <g
                 transform="translate(-21,83)"
                 id="g8537">
                <path
                   style="fill:#a7c5e7;fill-opacity:1;stroke:none"
                   d="m 304,112.7182 125,-51.999998 0,178.999998 -123,-44 z"
                   id="path8531"
                   inkscape:connector-curvature="0"
                   transform="translate(-170.0943,-105.83948)"
                   sodipodi:nodetypes="ccccc" />
                <path
                   style="fill:none;stroke:#ffffff;stroke-width:3;stroke-linecap:butt;stroke-linejoin:miter;stroke-miterlimit:4;stroke-opacity:1;stroke-dasharray:none"
                   d="m 305,156.7182 125,0"
                   id="path8533"
                   inkscape:connector-curvature="0"
                   transform="translate(-170.0943,-105.83948)"
                   sodipodi:nodetypes="cc" />
                <path
                   style="fill:none;stroke:#ffffff;stroke-width:3;stroke-linecap:butt;stroke-linejoin:miter;stroke-miterlimit:4;stroke-opacity:1;stroke-dasharray:none"
                   d="M 359,89.718202 359,214.7182"
                   id="path8535"
                   inkscape:connector-curvature="0"
                   transform="translate(-170.0943,-105.83948)" />
              </g>
              <path
                 inkscape:connector-curvature="0"
                 id="path8542"
                 d="M 114.64089,133.66273 78.592617,107.32792 c 0,0 -15.565841,-41.081682 -27.27035,-15.56689 -11.704508,25.51479 26.099976,12.99197 26.099976,12.99197"
                 style="fill:none;stroke:#000000;stroke-width:3;stroke-linecap:butt;stroke-linejoin:miter;stroke-miterlimit:4;stroke-opacity:1;stroke-dasharray:none"
                 inkscape:transform-center-x="27.278914"
                 inkscape:transform-center-y="-20.067171" />
              <path
                 inkscape:connector-curvature="0"
                 id="path8544"
                 d="m 235.50981,147.44929 22.96881,65.40564 c 0,0 22.8705,27.39351 1.29187,24.74799 -21.57865,-2.64551 -1.22905,-25.44611 -1.22905,-25.44611"
                 style="fill:none;stroke:#000000;stroke-width:3.55223107;stroke-linecap:butt;stroke-linejoin:miter;stroke-miterlimit:4;stroke-opacity:1;stroke-dasharray:none"
                 inkscape:transform-center-x="-14.360158"
                 inkscape:transform-center-y="37.657483" />
              <path
                 inkscape:connector-curvature="0"
                 id="path8546"
                 d="m 147.7061,184.06216 -42.94709,57.79746 -33.968324,-24.72151 c 23.412145,-22.38015 32.192924,22.10465 32.192924,22.10465"
                 style="fill:none;stroke:#000000;stroke-width:3;stroke-linecap:butt;stroke-linejoin:miter;stroke-miterlimit:4;stroke-opacity:1;stroke-dasharray:none"
                 inkscape:transform-center-x="31.912296"
                 inkscape:transform-center-y="23.485348" />
              <path
                 inkscape:connector-curvature="0"
                 id="path8546-9"
                 d="m 193.56581,198.48739 -35.45308,62.6744 -36.77023,-20.32118 c 20.45805,-25.10912 34.68421,17.94452 34.68421,17.94452"
                 style="fill:none;stroke:#000000;stroke-width:3;stroke-linecap:butt;stroke-linejoin:miter;stroke-miterlimit:4;stroke-opacity:1;stroke-dasharray:none"
                 inkscape:transform-center-x="30.049442"
                 inkscape:transform-center-y="25.481583" />
            </g>
            <rect
               style="fill:#06112f;fill-opacity:1;fill-rule:nonzero;stroke:none"
               id="rect8879"
               width="81.91851"
               height="87.15461"
               x="349.13657"
               y="218.19716" />
            <path
               style="fill:#0c225e;fill-opacity:1;stroke:none"
               d="m 349.13655,304.49728 -33.01193,-26.48816 3.66798,-82.02785 30.56662,23.07033 z"
               id="path8881"
               inkscape:connector-curvature="0" />
            <path
               style="fill:#123490;fill-opacity:1;stroke:none"
               d="m 350.86567,219.75946 81.91849,-0.85447 -45.23856,-26.48816 -69.69188,0.85447 z"
               id="path8883"
               inkscape:connector-curvature="0" />
            <rect
               style="fill:#0c225e;fill-opacity:1;fill-rule:nonzero;stroke:none"
               id="rect8885"
               width="3.6679926"
               height="125.93442"
               x="367.89606"
               y="76.97995" />
            <path
               sodipodi:type="arc"
               style="fill:#0c225e;fill-opacity:1;fill-rule:nonzero;stroke:none"
               id="path8887"
               sodipodi:cx="528.91589"
               sodipodi:cy="87.650093"
               sodipodi:rx="9.8994951"
               sodipodi:ry="9.8994951"
               d="m 538.81136,87.36769 a 9.8994951,9.8994951 0 1 1 -0.002,-0.06636"
               transform="matrix(0.8645542,0,0,0.8645542,-87.35459,-0.52740837)"
               sodipodi:start="6.2546544"
               sodipodi:end="12.531133"
               sodipodi:open="true" />
            <path
               style="fill:none;stroke:#c0c0c0;stroke-width:2.59366274;stroke-linecap:butt;stroke-linejoin:miter;stroke-miterlimit:4;stroke-opacity:1;stroke-dasharray:none"
               d="m 375.31022,61.731363 c 14.91392,0.532641 17.57711,19.707686 4.79376,22.370882"
               id="path8889"
               inkscape:connector-curvature="0"
               sodipodi:nodetypes="cc" />
            <path
               style="fill:none;stroke:#c0c0c0;stroke-width:6.36618042;stroke-linecap:butt;stroke-linejoin:miter;stroke-miterlimit:4;stroke-opacity:1;stroke-dasharray:none"
               d="m 377.80282,44.744264 c 36.60643,1.30738 43.14329,48.372787 11.76636,54.90964"
               id="path8889-7"
               inkscape:connector-curvature="0"
               sodipodi:nodetypes="cc" />
            <path
               style="fill:none;stroke:#c0c0c0;stroke-width:13.19264221;stroke-linecap:butt;stroke-linejoin:miter;stroke-miterlimit:4;stroke-opacity:1;stroke-dasharray:none"
               d="M 386.67027,6.6588929 C 462.52981,9.3681744 476.07614,106.90186 411.0537,120.44819"
               id="path8889-7-2"
               inkscape:connector-curvature="0"
               sodipodi:nodetypes="cc" />
            <g
               style="font-size:40px;font-style:normal;font-weight:normal;line-height:125%;letter-spacing:0px;word-spacing:0px;fill:#000000;fill-opacity:1;stroke:none;font-family:Sans"
               id="text8927"
               transform="matrix(0.8645542,0,0,0.8645542,50.574616,29.076224)">
              <g
                 id="g8964"
                 transform="translate(-20,102)">
                <path
                   id="path8934"
                   d="m 347.77679,-130.03925 0,22.67579 4.76563,0 c 4.02342,0 6.96613,-0.91146 8.82812,-2.73438 1.87498,-1.82291 2.81248,-4.70051 2.8125,-8.63281 -2e-5,-3.90623 -0.93752,-6.7643 -2.8125,-8.57422 -1.86199,-1.82289 -4.8047,-2.73435 -8.82812,-2.73438 l -4.76563,0 m -3.94531,-3.24218 8.10547,0 c 5.65102,3e-5 9.79816,1.17841 12.44141,3.53515 2.6432,2.34378 3.96481,6.01565 3.96484,11.01563 -3e-5,5.02605 -1.32815,8.71745 -3.98437,11.07422 -2.65628,2.35677 -6.7969,3.53515 -12.42188,3.53515 l -8.10547,0 0,-29.16015"
                   inkscape:connector-curvature="0" />
                <path
                   id="path8936"
                   d="m 384.39789,-115.11737 c -2.90366,10e-6 -4.91538,0.33204 -6.03516,0.99609 -1.1198,0.66407 -1.67969,1.79689 -1.67969,3.39844 0,1.27605 0.41666,2.29167 1.25,3.04688 0.84635,0.74219 1.99218,1.11328 3.4375,1.11328 1.99218,0 3.58723,-0.70312 4.78516,-2.10938 1.21092,-1.41926 1.81639,-3.30077 1.81641,-5.64453 l 0,-0.80078 -3.57422,0 m 7.16797,-1.48438 0,12.48047 -3.59375,0 0,-3.32031 c -0.82033,1.32813 -1.84247,2.3112 -3.06641,2.94922 -1.22397,0.625 -2.72136,0.9375 -4.49219,0.9375 -2.23959,0 -4.02344,-0.625 -5.35156,-1.875 -1.31511,-1.26302 -1.97266,-2.94922 -1.97266,-5.05859 0,-2.46093 0.82031,-4.3164 2.46094,-5.56641 1.65364,-1.24999 4.11458,-1.87499 7.38281,-1.875 l 5.03907,0 0,-0.35156 c -2e-5,-1.65363 -0.54689,-2.92967 -1.64063,-3.82813 -1.08074,-0.91144 -2.60418,-1.36717 -4.57031,-1.36719 -1.25001,2e-5 -2.46746,0.14976 -3.65234,0.44922 -1.18491,0.2995 -2.32423,0.74872 -3.41797,1.34766 l 0,-3.32031 c 1.3151,-0.50779 2.59114,-0.8854 3.82812,-1.13282 1.23697,-0.26039 2.4414,-0.3906 3.61328,-0.39062 3.16405,2e-5 5.52733,0.82033 7.08985,2.46094 1.56248,1.64064 2.34373,4.12762 2.34375,7.46093"
                   inkscape:connector-curvature="0" />
                <path
                   id="path8938"
                   d="m 402.54242,-132.20721 0,6.21093 7.40234,0 0,2.79297 -7.40234,0 0,11.875 c -10e-6,1.78386 0.24088,2.92969 0.72266,3.4375 0.49478,0.50782 1.49087,0.76172 2.98828,0.76172 l 3.6914,0 0,3.00781 -3.6914,0 c -2.77345,0 -4.68751,-0.51432 -5.74219,-1.54297 -1.05469,-1.04166 -1.58204,-2.92968 -1.58203,-5.66406 l 0,-11.875 -2.63672,0 0,-2.79297 2.63672,0 0,-6.21093 3.61328,0"
                   inkscape:connector-curvature="0" />
                <path
                   id="path8940"
                   d="m 423.16742,-123.47675 c -1.92709,2e-5 -3.45053,0.75523 -4.57031,2.26563 -1.1198,1.49741 -1.6797,3.5547 -1.67969,6.17187 -10e-6,2.6172 0.55338,4.681 1.66016,6.19141 1.11978,1.4974 2.64972,2.2461 4.58984,2.24609 1.91405,10e-6 3.43097,-0.7552 4.55078,-2.26562 1.11977,-1.51041 1.67967,-3.5677 1.67969,-6.17188 -2e-5,-2.59113 -0.55992,-4.64191 -1.67969,-6.15234 -1.11981,-1.52342 -2.63673,-2.28514 -4.55078,-2.28516 m 0,-3.04687 c 3.12498,2e-5 5.57941,1.01565 7.36328,3.04687 1.78383,2.03127 2.67576,4.84377 2.67578,8.4375 -2e-5,3.58074 -0.89195,6.39324 -2.67578,8.4375 -1.78387,2.03125 -4.2383,3.04688 -7.36328,3.04688 -3.13803,0 -5.59897,-1.01563 -7.38281,-3.04688 -1.77084,-2.04426 -2.65626,-4.85676 -2.65625,-8.4375 -10e-6,-3.59373 0.88541,-6.40623 2.65625,-8.4375 1.78384,-2.03122 4.24478,-3.04685 7.38281,-3.04687"
                   inkscape:connector-curvature="0" />
                <path
                   id="path8942"
                   d="m 453.08929,-125.35175 0,3.39844 c -1.01564,-0.52081 -2.07032,-0.91144 -3.16406,-1.17187 -1.09376,-0.2604 -2.22657,-0.39061 -3.39844,-0.39063 -1.78386,2e-5 -3.125,0.27346 -4.02343,0.82031 -0.88543,0.5469 -1.32813,1.36721 -1.32813,2.46094 0,0.83335 0.31901,1.4909 0.95703,1.97266 0.63802,0.46876 1.92057,0.91798 3.84766,1.34765 l 1.23047,0.27344 c 2.55207,0.54689 4.36196,1.32163 5.42969,2.32422 1.08071,0.98959 1.62107,2.37631 1.62109,4.16016 -2e-5,2.03125 -0.80731,3.63932 -2.42188,4.82422 -1.60157,1.18489 -3.8086,1.77734 -6.62109,1.77734 -1.17188,0 -2.39584,-0.11719 -3.67187,-0.35156 -1.26303,-0.22136 -2.59766,-0.5599 -4.00391,-1.01563 l 0,-3.71094 c 1.32812,0.69011 2.63671,1.21095 3.92578,1.5625 1.28906,0.33855 2.5651,0.50782 3.82813,0.50782 1.69269,0 2.99477,-0.28646 3.90625,-0.85938 0.91144,-0.58593 1.36717,-1.40624 1.36718,-2.46094 -10e-6,-0.97655 -0.33204,-1.72525 -0.99609,-2.24609 -0.65106,-0.52082 -2.08986,-1.02213 -4.31641,-1.50391 l -1.25,-0.29296 c -2.22657,-0.46874 -3.83464,-1.18489 -4.82422,-2.14844 -0.98958,-0.97655 -1.48437,-2.31119 -1.48437,-4.00391 0,-2.05727 0.72916,-3.64581 2.1875,-4.76562 1.45833,-1.11977 3.52864,-1.67967 6.21094,-1.67969 1.32811,2e-5 2.57811,0.0977 3.75,0.29297 1.17186,0.19533 2.25258,0.4883 3.24218,0.8789"
                   inkscape:connector-curvature="0" />
                <path
                   id="path8944"
                   d="m 308.77679,-96.039246 0,10.957032 4.96094,0 c 1.83592,1.5e-5 3.25519,-0.475245 4.25781,-1.425782 1.00259,-0.950503 1.50389,-2.304668 1.50391,-4.0625 -2e-5,-1.744769 -0.50132,-3.092424 -1.50391,-4.042968 -1.00262,-0.950496 -2.42189,-1.425756 -4.25781,-1.425782 l -4.96094,0 m -3.94531,-3.242187 8.90625,0 c 3.26821,2.9e-5 5.73566,0.742216 7.40235,2.226562 1.67966,1.47138 2.5195,3.632836 2.51953,6.484375 -3e-5,2.877622 -0.83987,5.052099 -2.51953,6.523438 -1.66669,1.471367 -4.13414,2.207043 -7.40235,2.207031 l -4.96094,0 0,11.71875 -3.94531,0 0,-29.160156"
                   inkscape:connector-curvature="0" />
                <path
                   id="path8946"
                   d="m 346.12054,-81.957214 0,1.757812 -16.52343,0 c 0.15624,2.473966 0.89843,4.361985 2.22656,5.664063 1.34114,1.289065 3.20311,1.933596 5.58594,1.933593 1.38019,3e-6 2.71482,-0.169268 4.0039,-0.507812 1.30207,-0.338538 2.59113,-0.84635 3.86719,-1.523438 l 0,3.398438 c -1.28908,0.546875 -2.6107,0.963542 -3.96484,1.25 -1.35419,0.286458 -2.72788,0.429687 -4.1211,0.429687 -3.48959,0 -6.25651,-1.015624 -8.30078,-3.046875 -2.03125,-2.031245 -3.04688,-4.778638 -3.04687,-8.242187 -10e-6,-3.580715 0.96354,-6.419254 2.89062,-8.515625 1.9401,-2.109354 4.55077,-3.16404 7.83203,-3.164063 2.9427,2.3e-5 5.26691,0.950543 6.97266,2.851563 1.71873,1.888038 2.5781,4.45965 2.57812,7.714844 m -3.59375,-1.054688 c -0.0261,-1.966131 -0.57944,-3.53514 -1.66015,-4.707031 -1.06773,-1.171856 -2.487,-1.757793 -4.25781,-1.757813 -2.00522,2e-5 -3.61329,0.566425 -4.82422,1.699219 -1.19793,1.132829 -1.88803,2.72788 -2.07032,4.785156 l 12.8125,-0.01953"
                   inkscape:connector-curvature="0" />
                <path
                   id="path8948"
                   d="m 364.69476,-88.636902 c -0.40366,-0.234356 -0.84637,-0.403627 -1.32812,-0.507812 -0.46877,-0.117169 -0.9896,-0.175762 -1.5625,-0.175782 -2.03126,2e-5 -3.59376,0.664081 -4.6875,1.992188 -1.08074,1.31512 -1.6211,3.209649 -1.6211,5.683594 l 0,11.523437 -3.61328,0 0,-21.875 3.61328,0 0,3.398438 c 0.7552,-1.328106 1.73828,-2.311177 2.94922,-2.949219 1.21093,-0.65102 2.68228,-0.97654 4.41407,-0.976563 0.24738,2.3e-5 0.52081,0.01955 0.82031,0.05859 0.29946,0.02606 0.63149,0.07164 0.99609,0.136719 l 0.0195,3.691406"
                   inkscape:connector-curvature="0" />
                <path
                   id="path8950"
                   d="m 382.44867,-91.351746 0,3.398438 c -1.01564,-0.520815 -2.07033,-0.91144 -3.16406,-1.171875 -1.09377,-0.260398 -2.22658,-0.390606 -3.39844,-0.390625 -1.78386,1.9e-5 -3.12501,0.273457 -4.02344,0.820312 -0.88542,0.546893 -1.32813,1.367205 -1.32812,2.460938 -10e-6,0.833349 0.319,1.4909 0.95703,1.972656 0.63801,0.468764 1.92056,0.917982 3.84765,1.347656 l 1.23047,0.273438 c 2.55207,0.546887 4.36197,1.321626 5.42969,2.324219 1.08071,0.989592 1.62108,2.37631 1.62109,4.160156 -1e-5,2.031254 -0.80731,3.639325 -2.42187,4.824219 -1.60158,1.184896 -3.80861,1.777343 -6.62109,1.777343 -1.17189,0 -2.39585,-0.117188 -3.67188,-0.351562 -1.26303,-0.221354 -2.59766,-0.559896 -4.00391,-1.015625 l 0,-3.710938 c 1.32813,0.690108 2.63672,1.210941 3.92579,1.5625 1.28905,0.338545 2.56509,0.507815 3.82812,0.507813 1.6927,2e-6 2.99478,-0.286456 3.90625,-0.859375 0.91144,-0.585934 1.36717,-1.406245 1.36719,-2.460938 -2e-5,-0.976555 -0.33205,-1.725253 -0.9961,-2.246093 -0.65105,-0.520825 -2.08985,-1.022127 -4.3164,-1.503907 l -1.25,-0.292968 c -2.22657,-0.46874 -3.83464,-1.184885 -4.82422,-2.148438 -0.98959,-0.976549 -1.48438,-2.311184 -1.48438,-4.003906 0,-2.057274 0.72917,-3.645814 2.1875,-4.765625 1.45833,-1.11977 3.52864,-1.679665 6.21094,-1.679688 1.32811,2.3e-5 2.57811,0.09768 3.75,0.292969 1.17186,0.195335 2.25259,0.488303 3.24219,0.878906"
                   inkscape:connector-curvature="0" />
                <path
                   id="path8952"
                   d="m 397.83929,-89.476746 c -1.92709,2e-5 -3.45053,0.755227 -4.57031,2.265625 -1.1198,1.497412 -1.67969,3.554701 -1.67969,6.171875 0,2.617196 0.55338,4.680996 1.66016,6.191407 1.11978,1.497399 2.64973,2.246096 4.58984,2.246093 1.91405,3e-6 3.43098,-0.755205 4.55079,-2.265625 1.11977,-1.51041 1.67966,-3.5677 1.67968,-6.171875 -2e-5,-2.591132 -0.55991,-4.641911 -1.67968,-6.152343 -1.11981,-1.523419 -2.63674,-2.285137 -4.55079,-2.285157 m 0,-3.046875 c 3.12499,2.3e-5 5.57941,1.015647 7.36329,3.046875 1.78383,2.031268 2.67575,4.843765 2.67578,8.4375 -3e-5,3.580737 -0.89195,6.393234 -2.67578,8.4375 -1.78388,2.031251 -4.2383,3.046875 -7.36329,3.046875 -3.13803,0 -5.59896,-1.015624 -7.38281,-3.046875 -1.77083,-2.044266 -2.65625,-4.856763 -2.65625,-8.4375 0,-3.593735 0.88542,-6.406232 2.65625,-8.4375 1.78385,-2.031228 4.24478,-3.046852 7.38281,-3.046875"
                   inkscape:connector-curvature="0" />
                <path
                   id="path8954"
                   d="m 431.99945,-83.324402 0,13.203125 -3.59375,0 0,-13.085937 c -2e-5,-2.070298 -0.40366,-3.619775 -1.21094,-4.648438 -0.8073,-1.028627 -2.01824,-1.542949 -3.63281,-1.542969 -1.94012,2e-5 -3.47006,0.618509 -4.58984,1.855469 -1.1198,1.236995 -1.6797,2.923192 -1.67969,5.058594 l 0,12.363281 -3.61328,0 0,-21.875 3.61328,0 0,3.398438 c 0.85937,-1.315085 1.86848,-2.298157 3.02734,-2.949219 1.17187,-0.65102 2.51952,-0.97654 4.04297,-0.976563 2.51301,2.3e-5 4.41405,0.781272 5.70313,2.34375 1.28904,1.549498 1.93357,3.834652 1.93359,6.855469"
                   inkscape:connector-curvature="0" />
                <path
                   id="path8956"
                   d="m 449.14789,-81.117371 c -2.90366,1.1e-5 -4.91538,0.332042 -6.03516,0.996094 -1.1198,0.664072 -1.67969,1.796883 -1.67969,3.398438 0,1.276047 0.41666,2.291671 1.25,3.046875 0.84635,0.74219 1.99218,1.113283 3.4375,1.113281 1.99218,2e-6 3.58723,-0.703122 4.78516,-2.109375 1.21092,-1.419265 1.81639,-3.300774 1.81641,-5.644531 l 0,-0.800782 -3.57422,0 m 7.16797,-1.484375 0,12.480469 -3.59375,0 0,-3.320312 c -0.82033,1.328127 -1.84247,2.311199 -3.06641,2.949218 -1.22397,0.625 -2.72136,0.9375 -4.49219,0.9375 -2.23959,0 -4.02344,-0.625 -5.35156,-1.875 -1.31511,-1.263018 -1.97266,-2.949214 -1.97266,-5.058593 0,-2.460929 0.82031,-4.316396 2.46094,-5.566407 1.65364,-1.249986 4.11458,-1.874986 7.38281,-1.875 l 5.03907,0 0,-0.351562 c -2e-5,-1.65363 -0.54689,-2.929671 -1.64063,-3.828125 -1.08074,-0.91144 -2.60418,-1.367168 -4.57031,-1.367188 -1.25001,2e-5 -2.46746,0.149759 -3.65234,0.449219 -1.18491,0.299498 -2.32423,0.748716 -3.41797,1.347656 l 0,-3.320312 c 1.3151,-0.507791 2.59114,-0.885395 3.82812,-1.132813 1.23697,-0.260394 2.4414,-0.390602 3.61328,-0.390625 3.16405,2.3e-5 5.52733,0.820334 7.08985,2.460938 1.56248,1.640643 2.34373,4.12762 2.34375,7.460937"
                   inkscape:connector-curvature="0" />
                <path
                   id="path8958"
                   d="m 463.73773,-100.5119 3.59375,0 0,30.390623 -3.59375,0 0,-30.390623"
                   inkscape:connector-curvature="0" />
                <path
                   id="path8960"
                   d="m 493.54242,-81.957214 0,1.757812 -16.52344,0 c 0.15625,2.473966 0.89843,4.361985 2.22656,5.664063 1.34114,1.289065 3.20312,1.933596 5.58594,1.933593 1.3802,3e-6 2.71483,-0.169268 4.00391,-0.507812 1.30206,-0.338538 2.59112,-0.84635 3.86719,-1.523438 l 0,3.398438 c -1.28909,0.546875 -2.6107,0.963542 -3.96485,1.25 -1.35418,0.286458 -2.72788,0.429687 -4.12109,0.429687 -3.4896,0 -6.25652,-1.015624 -8.30078,-3.046875 -2.03126,-2.031245 -3.04688,-4.778638 -3.04688,-8.242187 0,-3.580715 0.96354,-6.419254 2.89063,-8.515625 1.94009,-2.109354 4.55077,-3.16404 7.83203,-3.164063 2.94269,2.3e-5 5.26691,0.950543 6.97265,2.851563 1.71873,1.888038 2.57811,4.45965 2.57813,7.714844 m -3.59375,-1.054688 c -0.0261,-1.966131 -0.57945,-3.53514 -1.66016,-4.707031 -1.06772,-1.171856 -2.48699,-1.757793 -4.25781,-1.757813 -2.00522,2e-5 -3.61329,0.566425 -4.82422,1.699219 -1.19792,1.132829 -1.88803,2.72788 -2.07031,4.785156 l 12.8125,-0.01953"
                   inkscape:connector-curvature="0" />
                <path
                   id="path8962"
                   d="m 513.38617,-91.351746 0,3.398438 c -1.01564,-0.520815 -2.07033,-0.91144 -3.16406,-1.171875 -1.09377,-0.260398 -2.22658,-0.390606 -3.39844,-0.390625 -1.78386,1.9e-5 -3.12501,0.273457 -4.02344,0.820312 -0.88542,0.546893 -1.32813,1.367205 -1.32812,2.460938 -10e-6,0.833349 0.319,1.4909 0.95703,1.972656 0.63801,0.468764 1.92056,0.917982 3.84765,1.347656 l 1.23047,0.273438 c 2.55207,0.546887 4.36197,1.321626 5.42969,2.324219 1.08071,0.989592 1.62108,2.37631 1.62109,4.160156 -10e-6,2.031254 -0.80731,3.639325 -2.42187,4.824219 -1.60158,1.184896 -3.80861,1.777343 -6.62109,1.777343 -1.17189,0 -2.39585,-0.117188 -3.67188,-0.351562 -1.26303,-0.221354 -2.59766,-0.559896 -4.00391,-1.015625 l 0,-3.710938 c 1.32813,0.690108 2.63672,1.210941 3.92579,1.5625 1.28905,0.338545 2.56509,0.507815 3.82812,0.507813 1.6927,2e-6 2.99478,-0.286456 3.90625,-0.859375 0.91144,-0.585934 1.36717,-1.406245 1.36719,-2.460938 -2e-5,-0.976555 -0.33205,-1.725253 -0.9961,-2.246093 -0.65105,-0.520825 -2.08985,-1.022127 -4.3164,-1.503907 l -1.25,-0.292968 c -2.22657,-0.46874 -3.83464,-1.184885 -4.82422,-2.148438 -0.98959,-0.976549 -1.48438,-2.311184 -1.48438,-4.003906 0,-2.057274 0.72917,-3.645814 2.1875,-4.765625 1.45833,-1.11977 3.52864,-1.679665 6.21094,-1.679688 1.32811,2.3e-5 2.57811,0.09768 3.75,0.292969 1.17186,0.195335 2.25259,0.488303 3.24219,0.878906"
                   inkscape:connector-curvature="0" />
              </g>
            </g>
            <path
               style="fill:none;stroke:#ffffff;stroke-width:2.59366274;stroke-linecap:butt;stroke-linejoin:miter;stroke-miterlimit:4;stroke-opacity:1;stroke-dasharray:none"
               d="m 358.9228,240.35487 21.61385,11.23921"
               id="path8981"
               inkscape:connector-curvature="0" />
            <path
               style="fill:none;stroke:#ffffff;stroke-width:2.59366274;stroke-linecap:butt;stroke-linejoin:miter;stroke-miterlimit:4;stroke-opacity:1;stroke-dasharray:none"
               d="m 421.60298,240.571 -19.0202,12.10376"
               id="path8983"
               inkscape:connector-curvature="0" />
            <path
               style="fill:none;stroke:#ffffff;stroke-width:2.59366274;stroke-linecap:butt;stroke-linejoin:miter;stroke-miterlimit:4;stroke-opacity:1;stroke-dasharray:none"
               d="m 366.91992,280.55664 c 0,0 8.52091,10.03445 22.69455,10.37465 14.17363,0.3402 21.39771,-10.37465 21.39771,-10.37465"
               id="path8985"
               inkscape:connector-curvature="0"
               sodipodi:nodetypes="czc" />
            <path
               style="fill:none;stroke:#ffffff;stroke-width:2.59366274;stroke-miterlimit:4;stroke-opacity:1"
               d="m 368.82784,265.42439 c -3.46032,0.0988 -6.34553,-2.62633 -6.44427,-6.08665 -0.0988,-3.46033 2.62633,-6.34552 6.08665,-6.44429 3.44393,-0.0983 6.32156,2.60146 6.44361,6.06565 0.0994,3.48133 -2.62567,6.36655 -6.08599,6.46529 z"
               id="path8987"
               inkscape:connector-curvature="0"
               sodipodi:nodetypes="ssscs" />
            <path
               style="fill:none;stroke:#ffffff;stroke-width:2.59366274;stroke-miterlimit:4;stroke-opacity:1"
               d="m 413.78496,264.55983 c -3.46031,0.0988 -6.34551,-2.62633 -6.44427,-6.08665 -0.0987,-3.46032 2.62633,-6.34551 6.08667,-6.44426 3.44392,-0.0983 6.32155,2.60146 6.4436,6.06564 0.0994,3.48132 -2.62565,6.36653 -6.086,6.46527 z"
               id="path8987-8"
               inkscape:connector-curvature="0"
               sodipodi:nodetypes="ssscs" />
          </g>
        </g>
      </g>
    </g>
  </g>
</svg>
