<?xml version="1.0" encoding="UTF-8" standalone="no"?>
<!-- Created with Inkscape (http://www.inkscape.org/) -->

<svg
   xmlns:dc="http://purl.org/dc/elements/1.1/"
   xmlns:cc="http://creativecommons.org/ns#"
   xmlns:rdf="http://www.w3.org/1999/02/22-rdf-syntax-ns#"
   xmlns:svg="http://www.w3.org/2000/svg"
   xmlns="http://www.w3.org/2000/svg"
   xmlns:sodipodi="http://sodipodi.sourceforge.net/DTD/sodipodi-0.dtd"
   xmlns:inkscape="http://www.inkscape.org/namespaces/inkscape"
   width="152.55461"
   height="226.91992"
   id="svg2"
   version="1.1"
   inkscape:version="0.48.3.1 r9886"
   sodipodi:docname="ñu.svg">
  <defs
     id="defs4" />
  <sodipodi:namedview
     id="base"
     pagecolor="#ffffff"
     bordercolor="#666666"
     borderopacity="1.0"
     inkscape:pageopacity="0.0"
     inkscape:pageshadow="2"
     inkscape:zoom="2"
     inkscape:cx="33.781716"
     inkscape:cy="91.277325"
     inkscape:document-units="px"
     inkscape:current-layer="layer1"
     showgrid="false"
     fit-margin-left="1"
     fit-margin-right="1"
     fit-margin-bottom="1"
     fit-margin-top="1"
     inkscape:window-width="1280"
     inkscape:window-height="748"
     inkscape:window-x="0"
     inkscape:window-y="31"
     inkscape:window-maximized="1"
     inkscape:snap-global="true"
     inkscape:snap-midpoints="false"
     inkscape:snap-object-midpoints="false" />
  <metadata
     id="metadata7">
    <rdf:RDF>
      <cc:Work
         rdf:about="">
        <dc:format>image/svg+xml</dc:format>
        <dc:type
           rdf:resource="http://purl.org/dc/dcmitype/StillImage" />
        <dc:title />
      </cc:Work>
    </rdf:RDF>
  </metadata>
  <g
     inkscape:label="Layer 1"
     inkscape:groupmode="layer"
     id="layer1"
     transform="translate(-119.8905,-66.0762)">
    <path
       style="fill:#000000;fill-opacity:1;fill-rule:nonzero;stroke:none"
       d="m 232.51188,278.32394 c -10.27981,0.10336 -19.97688,-0.11673 -19.63714,-18.46553 0.36741,-19.84214 7.30958,-18.73642 17.5894,-18.83977 10.27982,-0.10336 19.07167,8.16394 19.63711,18.46548 0.5628,10.25276 -7.23748,18.66651 -17.46456,18.83813"
       id="path4194"
       inkscape:connector-curvature="0"
       sodipodi:nodetypes="csssc"
       inkscape:transform-center-x="-17.356005"
       inkscape:transform-center-y="3.3926442" />
    <path
       sodipodi:nodetypes="zzszz"
       inkscape:connector-curvature="0"
       id="path4138-9"
       d="m 259.38186,154.21274 c 6.10089,6.45126 11.16364,10.71249 -9.26941,30.03582 -20.43301,19.32332 -27.23464,16.88405 -33.42474,11.0494 -6.16077,-5.80701 -9.14605,-12.92656 10.934,-32.10596 20.08008,-19.17941 25.65923,-15.43052 31.76015,-8.97926 z"
       style="fill:#90673c;fill-opacity:1;fill-rule:nonzero;stroke:none"
       inkscape:transform-center-y="-20.769849"
       inkscape:transform-center-x="-22.069384" />
    <path
       style="fill:#000000;fill-opacity:1;stroke:none"
       d="m 248.05588,165.59902 c -13.86588,-13.37646 -8.07661,-13.57959 8.47679,-23.09708 1.99004,1.77727 5.17669,5.1747 6.80276,6.66212 0.53519,0.48942 -2.08563,3.75697 -1.59566,4.20828 0.37328,0.34371 3.8669,-2.1202 4.21245,-1.8003 3.45258,3.19657 5.49289,5.1649 5.49289,5.1649 -10.6724,20.11171 -10.80449,21.00268 -23.38925,8.8621 z"
       id="path4190"
       inkscape:connector-curvature="0"
       sodipodi:nodetypes="ccssscsc"
       inkscape:transform-center-x="-39.508307"
       inkscape:transform-center-y="-36.990182" />
    <path
       sodipodi:nodetypes="zzsszsz"
       inkscape:connector-curvature="0"
       id="path4138"
       d="m 194.75883,191.31794 c -18.86913,4.86905 -50.31127,14.28352 -62.10636,-31.42628 -11.79509,-45.70979 9.6844,-50.82175 37.30045,-58.79471 21.10763,-6.09394 38.90245,-14.14423 52.30803,5.45618 4.0504,5.92211 4.9742,25.08436 5.96039,28.75381 0.98622,3.66943 11.67737,12.35517 7.62095,23.06574 -5.36934,14.17726 -22.21433,28.07622 -41.08346,32.94526 z"
       style="fill:#c48d55;fill-opacity:1;fill-rule:nonzero;stroke:none" />
    <path
       style="fill:#c48d55;fill-opacity:1;fill-rule:nonzero;stroke:none"
       d="m 186.40062,285.3105 c -48.10633,0 -52.28438,-26.65892 -52.28438,-45.94732 0,-19.28841 10.88026,-39.3868 5.61668,-58.26509 -3.9152,-14.04224 -2.56959,-35.75897 14.42291,-36.24391 28.59606,-0.81609 83.53664,44.75453 84.00343,91.36513 0.46681,46.61065 -3.65229,49.09119 -51.75864,49.09119 z"
       id="path4083"
       inkscape:connector-curvature="0"
       sodipodi:nodetypes="zzsszz" />
    <path
       style="fill:#dabe8b;fill-opacity:1;stroke:none"
       d="m 205.35133,196.67204 c 11.52152,0 22.27972,-10.72356 34.27972,38.01518 7.68264,31.2035 1.13594,49.53947 -33.99871,49.53947 -35.13467,0 -42.43287,-0.52424 -42.43287,-51.37935 0,-38.79675 30.63034,-36.1753 42.15186,-36.1753 z"
       id="path4086"
       inkscape:connector-curvature="0"
       sodipodi:nodetypes="cszsc" />
    <path
       style="fill:#000000;fill-opacity:1;stroke:none"
       d="m 167.85544,91.775418 c 18.08281,-4.66614 35.0943,6.120742 44.85776,1.071936 9.7634,-5.048834 -9.17952,-25.771154 -9.17952,-25.771154 0,0 35.18968,18.743227 14.61079,37.01678 -20.57891,18.27355 -24.96769,-2.41026 -46.90421,3.2503 -21.93652,5.66056 -4.43241,28.57438 -34.76009,18.45494 -35.37046,-11.80204 0.50761,-40.917965 0.50761,-40.917965 0,0 -10.37248,19.127605 -2.56323,24.374775 11.65886,7.83376 15.34807,-12.81347 33.43089,-17.479612 z"
       id="path4088"
       inkscape:connector-curvature="0"
       sodipodi:nodetypes="zscssscsz" />
    <path
       sodipodi:type="arc"
       style="fill:#000000;fill-opacity:1;fill-rule:nonzero;stroke:none"
       id="path4118"
       sodipodi:cx="12.437503"
       sodipodi:cy="75.600388"
       sodipodi:rx="1.4520943"
       sodipodi:ry="1.4520943"
       d="m 13.889006,75.558964 c 0.02288,0.801643 -0.608436,1.470049 -1.410079,1.492927 -0.801643,0.02288 -1.47005,-0.608436 -1.492927,-1.410079 -0.02288,-0.801644 0.608436,-1.47005 1.410079,-1.492928 0.797844,-0.02277 1.464497,0.602672 1.492617,1.400346"
       transform="matrix(3.9335879,-1.0150344,1.0150344,3.9335879,42.132206,-134.39638)"
       sodipodi:start="6.2546544"
       sodipodi:end="12.531133"
       sodipodi:open="true" />
    <path
       sodipodi:open="true"
       sodipodi:end="12.531133"
       sodipodi:start="6.2546544"
       transform="matrix(3.9335879,-1.0150344,1.0150344,3.9335879,95.29604,-149.70094)"
       d="m 13.889006,75.558964 c 0.02288,0.801643 -0.608436,1.470049 -1.410079,1.492927 -0.801643,0.02288 -1.47005,-0.608436 -1.492927,-1.410079 -0.02288,-0.801644 0.608436,-1.47005 1.410079,-1.492928 0.797844,-0.02277 1.464497,0.602672 1.492617,1.400346"
       sodipodi:ry="1.4520943"
       sodipodi:rx="1.4520943"
       sodipodi:cy="75.600388"
       sodipodi:cx="12.437503"
       id="path4116"
       style="fill:#000000;fill-opacity:1;fill-rule:nonzero;stroke:none"
       sodipodi:type="arc" />
    <path
       sodipodi:type="arc"
       style="fill:#ffffff;fill-opacity:1;fill-rule:nonzero;stroke:none"
       id="path4136"
       sodipodi:cx="14.520943"
       sodipodi:cy="75.032181"
       sodipodi:rx="0.75761443"
       sodipodi:ry="0.75761443"
       d="m 15.278249,75.010568 c 0.01194,0.418249 -0.317445,0.766983 -0.735694,0.778919 -0.418248,0.01194 -0.766982,-0.317445 -0.778918,-0.735694 -0.01194,-0.418248 0.317445,-0.766982 0.735693,-0.778918 0.416267,-0.01188 0.764086,0.314437 0.778757,0.730615"
       transform="matrix(5.418375,-1.3981732,1.3981732,5.418375,37.793906,-252.42464)"
       sodipodi:start="6.2546544"
       sodipodi:end="12.531133"
       sodipodi:open="true" />
    <path
       sodipodi:open="true"
       sodipodi:end="12.531133"
       sodipodi:start="6.2546544"
       transform="matrix(5.418375,-1.3981732,1.3981732,5.418375,-15.150753,-237.17665)"
       d="m 15.278249,75.010568 c 0.01194,0.418249 -0.317445,0.766983 -0.735694,0.778919 -0.418248,0.01194 -0.766982,-0.317445 -0.778918,-0.735694 -0.01194,-0.418248 0.317445,-0.766982 0.735693,-0.778918 0.416267,-0.01188 0.764086,0.314437 0.778757,0.730615"
       sodipodi:ry="0.75761443"
       sodipodi:rx="0.75761443"
       sodipodi:cy="75.032181"
       sodipodi:cx="14.520943"
       id="path4131"
       style="fill:#ffffff;fill-opacity:1;fill-rule:nonzero;stroke:none"
       sodipodi:type="arc" />
    <path
       style="fill:#5f2c1b;fill-opacity:1;fill-rule:nonzero;stroke:none"
       d="m 173.63551,126.68722 c -2.12847,0.73729 13.04295,-15.77251 5.97681,-11.73363 -11.91947,6.81293 -10.34545,-8.75593 -13.52008,-11.92985 0,0 4.83083,-4.11432 9.39219,-5.17213 -10.82924,-8.111698 -21.0491,1.97309 -21.0491,1.97309 0,0 -0.95243,-2.72055 0.60117,-6.198744 1.21991,-2.731233 3.98496,-5.929599 9.96965,-8.644649 3.38115,-1.533919 19.73575,-8.426017 26.29331,6.26541 6.5576,14.691403 -14.61073,14.739203 -14.61073,14.739203 -0.13654,0.22579 14.0794,6.85272 14.0794,6.85272 -2.64777,4.60308 -15.6457,13.33358 -17.13262,13.84858 z"
       id="path4133"
       inkscape:connector-curvature="0"
       sodipodi:nodetypes="sssccsszscs" />
    <path
       sodipodi:nodetypes="csssc"
       inkscape:connector-curvature="0"
       id="path4198"
       d="m 205.76191,290.09241 c -10.02192,2.29059 -19.54332,4.14102 -23.11969,-13.85902 -3.86744,-19.46506 3.15096,-19.86342 13.17285,-22.15402 10.0219,-2.2906 20.37292,3.9143 23.11966,13.85901 2.73372,9.89761 -3.09542,19.77974 -13.05125,22.12579"
       style="fill:#000000;fill-opacity:1;fill-rule:nonzero;stroke:none"
       inkscape:transform-center-x="-18.303079"
       inkscape:transform-center-y="-1.8609808" />
    <path
       sodipodi:nodetypes="cszsc"
       inkscape:connector-curvature="0"
       id="path4140"
       d="m 208.44232,142.75724 c 9.06692,-2.33965 25.64312,-7.55251 31.28869,14.32591 4.10099,15.89267 -3.58298,24.70853 -19.89415,28.91751 -16.31115,4.20897 -37.88381,5.62228 -44.37374,-19.5283 -4.95109,-19.18707 23.91234,-21.37548 32.9792,-23.71512 z"
       style="fill:#dabe8b;fill-opacity:1;stroke:none" />
    <path
       inkscape:transform-center-y="-2.6734254"
       inkscape:transform-center-x="-2.9778517"
       inkscape:connector-curvature="0"
       id="path4142"
       d="m 223.12735,145.01114 c 1.53372,0.77262 1.11614,3.23408 -0.93264,5.49776 -2.04879,2.2637 -4.953,3.47246 -6.48672,2.69984 -1.53369,-0.77263 -1.11616,-3.23405 0.93267,-5.49776 2.03904,-2.25297 4.9279,-3.46294 6.46797,-2.70912"
       style="fill:#1a1a1a;fill-opacity:1;fill-rule:nonzero;stroke:none" />
    <path
       style="fill:#1a1a1a;fill-opacity:1;fill-rule:nonzero;stroke:none"
       d="m 199.91577,151.00072 c -0.96837,1.41828 0.58807,3.37035 3.47638,4.36004 2.88831,0.98973 6.01477,0.64231 6.98315,-0.77596 0.96834,-1.41826 -0.58805,-3.37033 -3.47639,-4.36003 -2.87459,-0.98504 -5.98822,-0.64611 -6.97126,0.75877"
       id="path4124"
       inkscape:connector-curvature="0"
       inkscape:transform-center-x="3.8996243"
       inkscape:transform-center-y="-0.8987551" />
    <path
       sodipodi:nodetypes="csc"
       inkscape:connector-curvature="0"
       id="path4164"
       d="m 196.32296,154.40574 c 0,0 -4.72861,-4.07655 -0.74495,-6.23951 3.98366,-2.16298 8.99391,-1.18581 8.99391,-1.18581"
       style="fill:none;stroke:#895c3a;stroke-width:1.10791445px;stroke-linecap:butt;stroke-linejoin:miter;stroke-opacity:1" />
    <path
       style="fill:none;stroke:#895c3a;stroke-width:1.10791445px;stroke-linecap:butt;stroke-linejoin:miter;stroke-opacity:1"
       d="m 227.1566,147.19232 c 0,0 2.16569,-5.85557 -2.36717,-5.82092 -4.53285,0.0347 -8.4447,3.31412 -8.4447,3.31412"
       id="path4144"
       inkscape:connector-curvature="0"
       sodipodi:nodetypes="csc" />
    <path
       style="fill:none;stroke:#895c3a;stroke-width:1.10791445;stroke-opacity:1"
       d="m 200.10396,176.13495 c 8.11098,-2.09298 8.85538,-7.05609 18.75448,-9.61048 9.8991,-2.5544 9.4713,2.50496 19.00315,0.0453"
       id="path4166"
       inkscape:connector-curvature="0"
       sodipodi:nodetypes="csc" />
    <path
       style="fill:#90673c;fill-opacity:1;fill-rule:nonzero;stroke:none"
       d="m 127.19046,198.41305 c -8.87911,-0.0404 -2.75091,-20.49972 -1.97112,-27.34148 0.77979,-6.84174 6.58855,-31.35902 15.08316,-31.80884 8.45433,-0.44767 9.05842,10.16389 8.92314,20.34164 -0.13527,10.17769 -13.15611,38.84913 -22.03522,38.8087 z"
       id="path4188-9"
       inkscape:connector-curvature="0"
       sodipodi:nodetypes="czszzc"
       inkscape:transform-center-x="-4.6069062"
       inkscape:transform-center-y="30.271605" />
    <path
       style="fill:#c48d55;fill-opacity:1;fill-rule:nonzero;stroke:none"
       d="m 156.49069,284.7108 c -29.48981,-2.14854 -22.31478,-26.85561 -22.31478,-44.5758 0,-17.72018 34.54924,17.7119 53.2937,14.4597 13.07965,-3.37526 -1.54314,4.71755 6.13976,26.12936 7.68292,21.4118 -7.62885,6.1353 -37.11868,3.98674 z"
       id="path4083-1"
       inkscape:connector-curvature="0"
       sodipodi:nodetypes="zzczz"
       inkscape:transform-center-x="-24.668273" />
    <path
       style="fill:#90673c;fill-opacity:1;fill-rule:nonzero;stroke:none"
       d="m 174.51677,254.47743 c -8.53012,2.46517 -14.63795,5.01152 -22.44585,-22.00582 -7.80788,-27.01732 -2.52232,-31.94425 5.50068,-34.77133 7.98495,-2.81369 15.6809,-2.20348 23.52269,24.43415 7.84178,26.63768 1.9526,29.87785 -6.57752,32.343 z"
       id="path4188"
       inkscape:connector-curvature="0"
       sodipodi:nodetypes="zzszz"
       inkscape:transform-center-y="28.716302"
       inkscape:transform-center-x="-8.5250361" />
    <path
       sodipodi:nodetypes="ccssscsc"
       inkscape:connector-curvature="0"
       id="path4192"
       d="m 170.27705,238.55728 c 18.24417,-6.19205 15.77108,-0.95367 16.64225,18.12088 -2.49172,0.95402 -6.97192,2.22891 -9.03919,2.99231 -0.68035,0.25121 -2.38308,-3.5757 -3.00876,-3.34713 -0.47659,0.17424 0.11183,4.40861 -0.33084,4.56907 -4.42355,1.60332 -7.10816,2.51446 -7.10816,2.51446 -12.98254,-18.70386 -13.71388,-19.22966 2.84468,-24.84962 z"
       style="fill:#000000;fill-opacity:1;stroke:none"
       inkscape:transform-center-x="-14.360899"
       inkscape:transform-center-y="52.215089" />
  </g>
</svg>
