<?xml version="1.0" encoding="UTF-8" standalone="no"?>
<!-- Created with Inkscape (http://www.inkscape.org/) -->

<svg
   xmlns:dc="http://purl.org/dc/elements/1.1/"
   xmlns:cc="http://creativecommons.org/ns#"
   xmlns:rdf="http://www.w3.org/1999/02/22-rdf-syntax-ns#"
   xmlns:svg="http://www.w3.org/2000/svg"
   xmlns="http://www.w3.org/2000/svg"
   xmlns:sodipodi="http://sodipodi.sourceforge.net/DTD/sodipodi-0.dtd"
   xmlns:inkscape="http://www.inkscape.org/namespaces/inkscape"
   width="154.83817"
   height="267.44354"
   id="svg2"
   version="1.1"
   inkscape:version="0.48.3.1 r9886"
   sodipodi:docname="ñu.svg">
  <defs
     id="defs4" />
  <sodipodi:namedview
     id="base"
     pagecolor="#ffffff"
     bordercolor="#666666"
     borderopacity="1.0"
     inkscape:pageopacity="0.0"
     inkscape:pageshadow="2"
     inkscape:zoom="2"
     inkscape:cx="46.185604"
     inkscape:cy="124.88171"
     inkscape:document-units="px"
     inkscape:current-layer="layer1"
     showgrid="false"
     fit-margin-left="1"
     fit-margin-right="1"
     fit-margin-bottom="1"
     fit-margin-top="1"
     inkscape:window-width="1280"
     inkscape:window-height="748"
     inkscape:window-x="0"
     inkscape:window-y="31"
     inkscape:window-maximized="1"
     inkscape:snap-global="true"
     inkscape:snap-midpoints="false"
     inkscape:snap-object-midpoints="false"
     inkscape:showpageshadow="false" />
  <metadata
     id="metadata7">
    <rdf:RDF>
      <cc:Work
         rdf:about="">
        <dc:format>image/svg+xml</dc:format>
        <dc:type
           rdf:resource="http://purl.org/dc/dcmitype/StillImage" />
        <dc:title></dc:title>
      </cc:Work>
    </rdf:RDF>
  </metadata>
  <g
     inkscape:label="Layer 1"
     inkscape:groupmode="layer"
     id="layer1"
     transform="translate(-107.48661,-39.156961)">
    <path
       sodipodi:nodetypes="csssc"
       inkscape:connector-curvature="0"
       id="path4198-8"
       d="m 201.93614,286.92401 c -4.13239,-9.41324 -7.73843,-18.41756 9.26939,-25.31148 18.39207,-7.45501 20.10171,-0.63638 24.2341,8.77683 4.13239,9.41322 -0.0177,20.74554 -9.26939,25.31146 -9.2079,4.54426 -20.00909,0.6752 -24.18353,-8.66271"
       style="fill:#000000;fill-opacity:1;fill-rule:nonzero;stroke:none"
       inkscape:transform-center-x="0.64229363"
       inkscape:transform-center-y="46.152562" />
    <path
       style="fill:#c48d55;fill-opacity:1;fill-rule:nonzero;stroke:none"
       d="m 197.96659,237.51897 c -2.09559,-17.94697 3.65511,-38.02802 14.7503,-40.80313 7.06099,-1.76608 23.07151,-3.69323 26.84027,8.01225 3.76876,11.70547 -12.9067,39.7613 -6.19134,57.56117 5.77212,12.21279 -4.92344,-0.6295 -24.5109,10.93874 -19.58744,11.56826 -8.79274,-17.76206 -10.88833,-35.70903 z"
       id="path4083-1-9"
       inkscape:connector-curvature="0"
       sodipodi:nodetypes="zszczz"
       inkscape:transform-center-x="-1.9149879"
       inkscape:transform-center-y="10.038847" />
    <path
       sodipodi:nodetypes="zzszz"
       inkscape:connector-curvature="0"
       id="path4138-9"
       d="m 249.0003,125.6862 c 7.30458,5.04804 13.14001,8.1685 -2.8486,31.30428 -15.98859,23.13577 -23.14791,22.15787 -30.41209,17.73155 -7.22975,-4.40535 -11.62465,-10.75237 4.04843,-33.67425 15.6731,-22.92189 21.90765,-20.40961 29.21226,-15.36158 z"
       style="fill:#90673c;fill-opacity:1;fill-rule:nonzero;stroke:none"
       inkscape:transform-center-y="-24.752232"
       inkscape:transform-center-x="-17.409519" />
    <path
       style="fill:#000000;fill-opacity:1;stroke:none"
       d="m 240.27771,139.17107 c -16.33534,-10.21513 -10.71362,-11.61271 3.51006,-24.3518 2.31494,1.32664 6.13607,3.99053 8.03491,5.10897 0.62493,0.36799 -1.26242,4.10743 -0.68961,4.4475 0.43636,0.25896 3.34402,-2.87501 3.74832,-2.6336 4.03969,2.41231 6.44339,3.91546 6.44339,3.91546 -6.27629,21.88583 -6.22101,22.78484 -21.04707,13.5135 z"
       id="path4190"
       inkscape:connector-curvature="0"
       sodipodi:nodetypes="ccssscsc"
       inkscape:transform-center-x="-30.472715"
       inkscape:transform-center-y="-44.731867" />
    <path
       sodipodi:nodetypes="zzsszsz"
       inkscape:connector-curvature="0"
       id="path4138"
       d="m 194.1678,164.26571 c -17.89257,7.7206 -47.50681,21.87113 -66.20969,-21.47298 -18.70288,-43.3441 1.73137,-51.70726 27.78757,-63.8435 19.9154,-9.276037 36.25594,-19.974163 52.52373,-2.67547 4.9152,5.22666 8.78295,24.01723 10.3232,27.49071 1.54029,3.47345 13.44297,10.40662 11.08675,21.61461 -3.11886,14.83567 -17.61899,31.16603 -35.51156,38.88663 z"
       style="fill:#c48d55;fill-opacity:1;fill-rule:nonzero;stroke:none"
       inkscape:transform-center-x="-0.062964159"
       inkscape:transform-center-y="-43.783438" />
    <path
       style="fill:#c48d55;fill-opacity:1;fill-rule:nonzero;stroke:none"
       d="m 186.40062,255.3105 c -48.10633,0 -52.28438,-26.65892 -52.28438,-45.94732 0,-19.28841 10.88026,-39.3868 5.61668,-58.26509 -3.9152,-14.04224 45.12013,21.75436 44.92291,4.75609 -0.40394,-34.81609 53.03664,3.75453 53.50343,50.36513 0.46681,46.61065 -3.65229,49.09119 -51.75864,49.09119 z"
       id="path4083"
       inkscape:connector-curvature="0"
       sodipodi:nodetypes="zzsszz" />
    <path
       style="fill:#000000;fill-opacity:1;stroke:none"
       d="m 152.23582,70.06265 c 17.14695,-7.398862 35.61839,0.63566 44.48649,-5.858373 8.86803,-6.494048 -13.04387,-24.047316 -13.04387,-24.047316 0,0 37.65913,13.092445 20.14435,34.320869 -17.5148,21.22843 -25.04071,1.46882 -45.84193,10.4445 -20.8012,8.97566 0.0271,28.91609 -31.49836,23.59451 -36.767358,-6.2064 -5.8084,-40.50679 -5.8084,-40.50679 0,0 -7.29875,20.49834 1.22625,24.47849 12.72743,5.94214 13.18852,-15.02702 30.33547,-22.42589 z"
       id="path4088"
       inkscape:connector-curvature="0"
       sodipodi:nodetypes="zscssscsz"
       inkscape:transform-center-x="16.807515"
       inkscape:transform-center-y="-88.92417" />
    <path
       sodipodi:type="arc"
       style="fill:#000000;fill-opacity:1;fill-rule:nonzero;stroke:none"
       id="path4118"
       sodipodi:cx="12.437503"
       sodipodi:cy="75.600388"
       sodipodi:rx="1.4520943"
       sodipodi:ry="1.4520943"
       d="m 13.889006,75.558964 c 0.02288,0.801643 -0.608436,1.470049 -1.410079,1.492927 -0.801643,0.02288 -1.47005,-0.608436 -1.492927,-1.410079 -0.02288,-0.801644 0.608436,-1.47005 1.410079,-1.492928 0.797844,-0.02277 1.464497,0.602672 1.492617,1.400346"
       transform="matrix(3.7300073,-1.609489,1.609489,3.7300073,-8.529005,-131.73152)"
       sodipodi:start="6.2546544"
       sodipodi:end="12.531133"
       sodipodi:open="true"
       inkscape:transform-center-x="15.743767"
       inkscape:transform-center-y="-33.464982" />
    <path
       sodipodi:open="true"
       sodipodi:end="12.531133"
       sodipodi:start="6.2546544"
       transform="matrix(3.7300073,-1.609489,1.609489,3.7300073,44.006192,-159.34089)"
       d="m 13.889006,75.558964 c 0.02288,0.801643 -0.608436,1.470049 -1.410079,1.492927 -0.801643,0.02288 -1.47005,-0.608436 -1.492927,-1.410079 -0.02288,-0.801644 0.608436,-1.47005 1.410079,-1.492928 0.797844,-0.02277 1.464497,0.602672 1.492617,1.400346"
       sodipodi:ry="1.4520943"
       sodipodi:rx="1.4520943"
       sodipodi:cy="75.600388"
       sodipodi:cx="12.437503"
       id="path4116"
       style="fill:#000000;fill-opacity:1;fill-rule:nonzero;stroke:none"
       sodipodi:type="arc"
       inkscape:transform-center-x="-36.79143"
       inkscape:transform-center-y="-61.074352" />
    <path
       sodipodi:type="arc"
       style="fill:#ffffff;fill-opacity:1;fill-rule:nonzero;stroke:none"
       id="path4136"
       sodipodi:cx="14.520943"
       sodipodi:cy="75.032181"
       sodipodi:rx="0.75761443"
       sodipodi:ry="0.75761443"
       d="m 15.278249,75.010568 c 0.01194,0.418249 -0.317445,0.766983 -0.735694,0.778919 -0.418248,0.01194 -0.766982,-0.317445 -0.778918,-0.735694 -0.01194,-0.418248 0.317445,-0.766982 0.735693,-0.778918 0.416267,-0.01188 0.764086,0.314437 0.778757,0.730615"
       transform="matrix(5.13795,-2.2170128,2.2170128,5.13795,-28.649077,-251.96846)"
       sodipodi:start="6.2546544"
       sodipodi:end="12.531133"
       sodipodi:open="true"
       inkscape:transform-center-x="-37.021375"
       inkscape:transform-center-y="-62.355425" />
    <path
       sodipodi:open="true"
       sodipodi:end="12.531133"
       sodipodi:start="6.2546544"
       transform="matrix(5.13795,-2.2170128,2.2170128,5.13795,-80.976439,-224.44878)"
       d="m 15.278249,75.010568 c 0.01194,0.418249 -0.317445,0.766983 -0.735694,0.778919 -0.418248,0.01194 -0.766982,-0.317445 -0.778918,-0.735694 -0.01194,-0.418248 0.317445,-0.766982 0.735693,-0.778918 0.416267,-0.01188 0.764086,0.314437 0.778757,0.730615"
       sodipodi:ry="0.75761443"
       sodipodi:rx="0.75761443"
       sodipodi:cy="75.032181"
       sodipodi:cx="14.520943"
       id="path4131"
       style="fill:#ffffff;fill-opacity:1;fill-rule:nonzero;stroke:none"
       sodipodi:type="arc"
       inkscape:transform-center-x="15.305987"
       inkscape:transform-center-y="-34.835744" />
    <path
       style="fill:#5f2c1b;fill-opacity:1;fill-rule:nonzero;stroke:none"
       d="m 163.33049,103.6655 c -1.98932,1.05671 10.45466,-17.59519 4.09587,-12.51495 -10.72627,8.56953 -11.57194,-7.05583 -15.19805,-9.70222 0,0 4.13858,-4.81006 8.48225,-6.55863 -11.95059,-6.344698 -20.49304,5.19546 -20.49304,5.19546 0,0 -1.36057,-2.54113 -0.36192,-6.21731 0.78413,-2.88668 3.02288,-6.473183 8.5173,-10.078652 3.10416,-2.036975 18.2003,-11.368665 26.94499,2.135788 8.7447,13.504424 -12.16304,16.816014 -12.16304,16.816014 -0.1001,0.24414 14.96774,4.59956 14.96774,4.59956 -1.90626,4.95633 -13.40239,15.58681 -14.7921,16.32494 z"
       id="path4133"
       inkscape:connector-curvature="0"
       sodipodi:nodetypes="sssccsszscs"
       inkscape:transform-center-x="16.478721"
       inkscape:transform-center-y="-82.474826" />
    <path
       sodipodi:nodetypes="csssc"
       inkscape:connector-curvature="0"
       id="path4198"
       d="m 160.48478,305.21167 c -11.84802,-2.09288 -22.94456,-4.37739 -17.94432,-22.23092 5.40719,-19.30661 13.11311,-16.74482 24.96109,-14.65196 11.84799,2.09287 19.8819,12.04602 17.9443,22.23091 -1.92847,10.13666 -13.01265,16.69189 -24.81713,14.67695"
       style="fill:#000000;fill-opacity:1;fill-rule:nonzero;stroke:none"
       inkscape:transform-center-x="-15.988354"
       inkscape:transform-center-y="-9.3177058" />
    <path
       sodipodi:nodetypes="cszsc"
       inkscape:connector-curvature="0"
       id="path4140"
       d="m 200.19909,114.17576 c 8.59767,-3.70987 24.17172,-11.41657 33.12361,9.32954 6.50274,15.07015 0.27017,24.96549 -15.19683,31.63946 -15.46698,6.67397 -36.56364,11.39707 -46.8544,-12.45186 -7.85068,-18.19405 20.33001,-24.80729 28.92762,-28.51714 z"
       style="fill:#dabe8b;fill-opacity:1;stroke:none"
       inkscape:transform-center-x="-27.605366"
       inkscape:transform-center-y="-28.597928" />
    <path
       inkscape:transform-center-y="-44.945458"
       inkscape:transform-center-x="-36.738064"
       inkscape:connector-curvature="0"
       id="path4142"
       d="m 215.05603,114.13813 c 1.63453,0.52687 1.60152,3.02328 -0.0737,5.57581 -1.67519,2.55257 -4.35826,4.19473 -5.99279,3.66787 -1.63448,-0.52688 -1.60152,-3.02325 0.0737,-5.57583 1.66722,-2.54046 4.33495,-4.18144 5.97283,-3.67414"
       style="fill:#1a1a1a;fill-opacity:1;fill-rule:nonzero;stroke:none" />
    <path
       style="fill:#1a1a1a;fill-opacity:1;fill-rule:nonzero;stroke:none"
       d="m 193.04576,123.63551 c -0.73809,1.55064 1.10077,3.23934 4.10715,3.7718 3.00638,0.53248 6.04187,-0.29291 6.77995,-1.84355 0.73805,-1.55062 -1.10074,-3.23933 -4.10715,-3.77179 -2.99212,-0.52997 -6.01623,0.28506 -6.77087,1.82473"
       id="path4124"
       inkscape:connector-curvature="0"
       inkscape:transform-center-x="-23.204573"
       inkscape:transform-center-y="-39.105808" />
    <path
       sodipodi:nodetypes="csc"
       inkscape:connector-curvature="0"
       id="path4164"
       d="m 190.02101,127.55384 c 0,0 -5.30069,-3.29859 -1.69824,-6.04999 3.60246,-2.75143 8.70347,-2.55857 8.70347,-2.55857"
       style="fill:none;stroke:#895c3a;stroke-width:1.10791445px;stroke-linecap:butt;stroke-linejoin:miter;stroke-opacity:1"
       inkscape:transform-center-x="-16.762453"
       inkscape:transform-center-y="-40.457355" />
    <path
       style="fill:none;stroke:#895c3a;stroke-width:1.10791445px;stroke-linecap:butt;stroke-linejoin:miter;stroke-opacity:1"
       d="m 219.37344,115.67187 c 0,0 1.23681,-6.1195 -3.23649,-5.38625 -4.47328,0.73328 -7.83262,4.57673 -7.83262,4.57673"
       id="path4144"
       inkscape:connector-curvature="0"
       sodipodi:nodetypes="csc"
       inkscape:transform-center-x="-38.632561"
       inkscape:transform-center-y="-50.757212" />
    <path
       style="fill:none;stroke:#895c3a;stroke-width:1.10791445;stroke-opacity:1"
       d="m 197.10763,148.44007 c 7.6912,-3.31874 7.66133,-8.33727 17.04811,-12.38764 9.38678,-4.05038 9.7443,1.01443 18.78283,-2.88567"
       id="path4166"
       inkscape:connector-curvature="0"
       sodipodi:nodetypes="csc"
       inkscape:transform-center-x="-39.738369"
       inkscape:transform-center-y="-22.902042" />
    <path
       style="fill:#90673c;fill-opacity:1;fill-rule:nonzero;stroke:none"
       d="m 123.00179,181.69563 c -8.77913,1.32929 -5.87925,-19.8303 -6.16385,-26.71046 -0.2846,-6.88015 1.67388,-31.99993 9.99751,-33.75432 8.28418,-1.74605 10.51744,8.64542 11.95328,18.72228 1.43584,10.07681 -7.00784,40.41323 -15.78697,41.74252 z"
       id="path4188-9"
       inkscape:connector-curvature="0"
       sodipodi:nodetypes="czszzc"
       inkscape:transform-center-x="42.010965"
       inkscape:transform-center-y="-12.308908" />
    <path
       style="fill:#c48d55;fill-opacity:1;fill-rule:nonzero;stroke:none"
       d="m 141.34001,245.21986 c -2.09559,-17.94697 3.65511,-38.02803 14.7503,-40.80314 7.06099,-1.76608 23.07151,-3.69323 26.84027,8.01225 3.76876,11.70548 -12.9067,39.76131 -6.19134,57.56118 5.77212,12.21279 -4.92344,-0.6295 -24.5109,10.93874 -19.58744,11.56826 -8.79274,-17.76206 -10.88833,-35.70903 z"
       id="path4083-1"
       inkscape:connector-curvature="0"
       sodipodi:nodetypes="zszczz"
       inkscape:transform-center-x="-1.9149879"
       inkscape:transform-center-y="10.038847" />
    <path
       style="fill:#90673c;fill-opacity:1;fill-rule:nonzero;stroke:none"
       d="m 132.17708,223.42554 c -8.36558,-2.97608 -14.81149,-4.47265 -5.38539,-30.96885 9.42611,-26.49617 16.59352,-27.41263 24.75849,-25.02638 8.12626,2.37491 14.01974,7.36159 4.84275,33.56922 -9.17704,26.20766 -15.85028,25.40211 -24.21585,22.42601 z"
       id="path4188"
       inkscape:connector-curvature="0"
       sodipodi:nodetypes="zzszz"
       inkscape:transform-center-y="28.189309"
       inkscape:transform-center-x="10.393717" />
    <path
       sodipodi:nodetypes="ccssscsc"
       inkscape:connector-curvature="0"
       id="path4192"
       d="m 138.02474,208.02323 c 18.42888,5.61848 13.36361,8.42914 2.93966,24.42722 -2.58017,-0.67938 -6.96236,-2.25861 -9.0866,-2.84509 -0.69909,-0.19304 0.15147,-4.29439 -0.49001,-4.4739 -0.4887,-0.13663 -2.48193,3.64532 -2.93504,3.51729 -4.52785,-1.27947 -7.23963,-2.10624 -7.23963,-2.10624 0.37246,-22.76493 0.0854,-23.6187 16.81162,-18.51932 z"
       style="fill:#000000;fill-opacity:1;stroke:none"
       inkscape:transform-center-x="16.209003"
       inkscape:transform-center-y="51.428871" />
    <path
       style="fill:#dabe8b;fill-opacity:1;stroke:none"
       d="m 205.35133,166.67204 c 11.52152,0 20.77972,-15.72356 33.27972,32.51518 8.06093,31.10792 2.13594,55.03947 -32.99871,55.03947 -35.13467,0 -42.43287,-0.52424 -42.43287,-51.37935 0,-38.79675 30.63034,-36.1753 42.15186,-36.1753 z"
       id="path4086"
       inkscape:connector-curvature="0"
       sodipodi:nodetypes="cszsc" />
  </g>
</svg>
