<?xml version="1.0" encoding="UTF-8" standalone="no"?>
<!-- Created with Inkscape (http://www.inkscape.org/) -->

<svg
   xmlns:dc="http://purl.org/dc/elements/1.1/"
   xmlns:cc="http://creativecommons.org/ns#"
   xmlns:rdf="http://www.w3.org/1999/02/22-rdf-syntax-ns#"
   xmlns:svg="http://www.w3.org/2000/svg"
   xmlns="http://www.w3.org/2000/svg"
   xmlns:sodipodi="http://sodipodi.sourceforge.net/DTD/sodipodi-0.dtd"
   xmlns:inkscape="http://www.inkscape.org/namespaces/inkscape"
   width="668.4787"
   height="432.7182"
   id="svg44288"
   version="1.1"
   inkscape:version="0.48.3.1 r9886"
   sodipodi:docname="judio.svg">
  <defs
     id="defs44290">
    <inkscape:perspective
       sodipodi:type="inkscape:persp3d"
       inkscape:vp_x="64.999999 : 397.78767 : 1"
       inkscape:vp_y="0 : 1000 : 0"
       inkscape:vp_z="84.907276 : 515.64481 : 1"
       inkscape:persp3d-origin="334.23935 : 144.2394 : 1"
       id="perspective7631" />
  </defs>
  <sodipodi:namedview
     id="base"
     pagecolor="#ffffff"
     bordercolor="#666666"
     borderopacity="1.0"
     inkscape:pageopacity="0.0"
     inkscape:pageshadow="2"
     inkscape:zoom="1"
     inkscape:cx="361.57559"
     inkscape:cy="203.87138"
     inkscape:document-units="px"
     inkscape:current-layer="layer1-3"
     showgrid="false"
     fit-margin-top="0"
     fit-margin-left="0"
     fit-margin-right="0"
     fit-margin-bottom="0"
     inkscape:window-width="1280"
     inkscape:window-height="748"
     inkscape:window-x="0"
     inkscape:window-y="31"
     inkscape:window-maximized="1"
     showguides="true"
     inkscape:guide-bbox="true" />
  <metadata
     id="metadata44293">
    <rdf:RDF>
      <cc:Work
         rdf:about="">
        <dc:format>image/svg+xml</dc:format>
        <dc:type
           rdf:resource="http://purl.org/dc/dcmitype/StillImage" />
        <dc:title></dc:title>
      </cc:Work>
    </rdf:RDF>
  </metadata>
  <g
     inkscape:label="Layer 1"
     inkscape:groupmode="layer"
     id="layer1"
     transform="translate(-135.56322,-99.434632)">
    <g
       transform="matrix(0,1.2732029,-1.2732029,0,852.90355,-18.493305)"
       id="layer1-5">
      <g
         transform="translate(32.142857,50.714286)"
         id="g3961" />
      <g
         id="g6354"
         transform="matrix(0.87292113,0.57054744,-0.48786136,1.0208698,228.16831,-185.6481)">
        <g
           transform="matrix(-0.32764493,-0.58624889,0.68561038,-0.38317643,210.99139,484.96478)"
           id="layer1-56"
           inkscape:label="Layer 1">
          <g
             id="g8469">
            <g
               transform="translate(-248.10946,-351.14746)"
               id="layer1-7"
               inkscape:label="Layer 1">
              <g
                 id="g8733"
                 transform="translate(298.3142,358.57225)">
                <path
                   style="fill:#ffffff;fill-opacity:1;fill-rule:nonzero;stroke:#000000;stroke-width:4.76284361;stroke-miterlimit:4;stroke-opacity:1"
                   d="M -32.538068,67.002656 C -68.483551,68.028493 -98.454719,39.720532 -99.480555,3.7750499 -100.50639,-32.170433 -72.198423,-62.141611 -36.252943,-63.167448 -0.4778122,-64.188427 29.41475,-36.143772 30.68258,-0.15807514 31.71539,36.005641 3.4074098,65.976819 -32.538068,67.002656 z"
                   id="path8703"
                   inkscape:connector-curvature="0"
                   sodipodi:nodetypes="ssscs" />
                <path
                   sodipodi:type="arc"
                   style="fill:#000000;fill-opacity:1;fill-rule:nonzero;stroke:#000000;stroke-width:3;stroke-miterlimit:4;stroke-opacity:1;stroke-dasharray:none"
                   id="path8705"
                   sodipodi:cx="128.69344"
                   sodipodi:cy="168.96738"
                   sodipodi:rx="2.8284271"
                   sodipodi:ry="14.849242"
                   d="m 131.52071,168.54377 a 2.8284271,14.849242 0 1 1 -6e-4,-0.0995"
                   transform="matrix(1.5876145,0,0,0.83274885,-203.17267,-115.6098)"
                   sodipodi:start="6.2546544"
                   sodipodi:end="12.531133"
                   sodipodi:open="true" />
                <path
                   sodipodi:type="arc"
                   style="fill:#000000;fill-opacity:1;fill-rule:nonzero;stroke:#000000;stroke-width:3;stroke-miterlimit:4;stroke-opacity:1;stroke-dasharray:none"
                   id="path8705-1"
                   sodipodi:cx="128.69344"
                   sodipodi:cy="168.96738"
                   sodipodi:rx="2.8284271"
                   sodipodi:ry="14.849242"
                   d="m 131.52071,168.54377 a 2.8284271,14.849242 0 1 1 -6e-4,-0.0995"
                   transform="matrix(1.5876145,0,0,0.83274885,-259.27029,-116.46807)"
                   sodipodi:start="6.2546544"
                   sodipodi:end="12.531133"
                   sodipodi:open="true" />
                <path
                   style="fill:#ffffff;fill-opacity:1;stroke:#000000;stroke-width:4.76284361;stroke-linecap:butt;stroke-linejoin:miter;stroke-miterlimit:4;stroke-opacity:1;stroke-dasharray:none"
                   d="m -16.433695,67.029169 30.084735,3.206664 50.80831,59.976327 72.90492,1.92856 L 53.47332,146.07159 13.87685,93.971877 3.7733398,309.51357 -22.04677,169.18694 l -26.942708,139.20401 -7.858279,-205.43818 -6.04716,32.53948 -8.546828,79.72183 c 0,0 -13.284095,-48.23272 -6.704369,-95.8241 4.047671,-29.277006 12.213884,-52.788387 28.034034,-52.360811 41.5366798,1.122618 33.678385,0 33.678385,0 z"
                   id="path8730"
                   inkscape:connector-curvature="0"
                   sodipodi:nodetypes="ccccccccccccssc" />
                <g
                   transform="translate(-148.37167,-510.93764)"
                   id="layer1-3"
                   inkscape:label="Layer 1">
                  <g
                     transform="matrix(1.3408034,0,0,1.3408034,191.35113,460.00457)"
                     id="g8566">
                    <g
                       id="g8537"
                       transform="translate(-21,83)">
                      <path
                         sodipodi:nodetypes="ccccc"
                         transform="translate(-170.0943,-105.83948)"
                         inkscape:connector-curvature="0"
                         id="path8531"
                         d="m 304,112.7182 125,-51.999998 0,178.999998 -123,-44 z"
                         style="fill:#a7c5e7;fill-opacity:1;stroke:none" />
                      <path
                         sodipodi:nodetypes="cc"
                         transform="translate(-170.0943,-105.83948)"
                         inkscape:connector-curvature="0"
                         id="path8533"
                         d="m 305,156.7182 125,0"
                         style="fill:none;stroke:#ffffff;stroke-width:3;stroke-linecap:butt;stroke-linejoin:miter;stroke-miterlimit:4;stroke-opacity:1;stroke-dasharray:none" />
                      <path
                         transform="translate(-170.0943,-105.83948)"
                         inkscape:connector-curvature="0"
                         id="path8535"
                         d="M 359,89.718202 359,214.7182"
                         style="fill:none;stroke:#ffffff;stroke-width:3;stroke-linecap:butt;stroke-linejoin:miter;stroke-miterlimit:4;stroke-opacity:1;stroke-dasharray:none" />
                    </g>
                    <path
                       style="fill:none;stroke:#000000;stroke-width:3;stroke-linecap:butt;stroke-linejoin:miter;stroke-miterlimit:4;stroke-opacity:1;stroke-dasharray:none"
                       d="m 114.41096,142.50509 -68.0252,-34.47726 c 0,0 -5.677131,-31.875444 -15.79239,-5.68992 -10.115259,26.18552 16.687047,7.37503 16.687047,7.37503"
                       id="path8542"
                       inkscape:connector-curvature="0"
                       sodipodi:nodetypes="ccsc"
                       inkscape:transform-center-x="40.732542"
                       inkscape:transform-center-y="-25.379063" />
                    <path
                       style="fill:none;stroke:#000000;stroke-width:3.55223107;stroke-linecap:butt;stroke-linejoin:miter;stroke-miterlimit:4;stroke-opacity:1;stroke-dasharray:none"
                       d="m 236.67437,148.34632 3.31914,69.24194 c 0,0 14.08812,32.78703 -5.83453,24.08507 -19.92265,-8.70197 6.09424,-24.73612 6.09424,-24.73612"
                       id="path8544"
                       inkscape:connector-curvature="0"
                       inkscape:transform-center-x="-1.7374696"
                       inkscape:transform-center-y="37.740741" />
                    <path
                       style="fill:none;stroke:#000000;stroke-width:3;stroke-linecap:butt;stroke-linejoin:miter;stroke-miterlimit:4;stroke-opacity:1;stroke-dasharray:none"
                       d="m 317,289.7182 1,72 -42,1 c 5,-32 39,-2 39,-2"
                       id="path8546"
                       inkscape:connector-curvature="0"
                       transform="translate(-170.0943,-105.83948)" />
                    <path
                       style="fill:none;stroke:#000000;stroke-width:3;stroke-linecap:butt;stroke-linejoin:miter;stroke-miterlimit:4;stroke-opacity:1;stroke-dasharray:none"
                       d="m 192.9057,198.37872 1,72.00001 -42,1 c 5,-32 39,-2 39,-2"
                       id="path8546-9"
                       inkscape:connector-curvature="0" />
                    <path
                       transform="matrix(1.184077,0,0,1.184077,-290.50964,-195.92714)"
                       inkscape:connector-curvature="0"
                       id="path8578"
                       d="m 375.57596,392.26946 c 0.43662,-1.81404 2.22932,-5.19623 3.34741,-6.31536 2.60668,-2.60913 6.92748,-2.90494 12.2802,-0.84071 2.89638,1.11697 7.33119,3.63437 10.54052,5.98329 l 1.7607,1.28867 -6.53367,0.22549 c -3.59353,0.12403 -9.92868,0.31053 -14.07812,0.41445 l -7.54443,0.18894 0.22739,-0.94477 0,0 z"
                       style="fill:#ffffff;fill-opacity:1;fill-rule:nonzero;stroke:none" />
                    <path
                       transform="matrix(1.184077,0,0,1.184077,-290.50964,-195.92714)"
                       inkscape:connector-curvature="0"
                       id="path8580"
                       d="m 336.71162,380.12129 c 1.33477,-4.31871 2.80949,-6.51731 5.23482,-7.80437 1.88988,-1.00291 5.88082,-1.0504 8.71624,-0.10372 2.97142,0.99209 7.26045,3.23549 10.76962,5.63311 l 3.16823,2.16467 -2.6379,0.2248 c -1.45084,0.12364 -7.78268,0.33238 -14.07077,0.46387 l -11.43288,0.23906 0.25264,-0.81742 z"
                       style="fill:#ffffff;fill-opacity:1;fill-rule:nonzero;stroke:none" />
                    <g
                       id="g10179"
                       transform="matrix(0.82208436,0.56936571,-0.5693657,0.82208436,65.696805,-4.8833008)">
                      <rect
                         style="fill:#cfd7e3;fill-opacity:1;stroke:none"
                         id="rect10137"
                         width="17.582649"
                         height="46.049789"
                         x="31.879679"
                         y="82.536324" />
                      <rect
                         y="94.048767"
                         x="31.879679"
                         height="34.537338"
                         width="17.582649"
                         id="rect10135"
                         style="fill:#96f287;fill-opacity:1;stroke:none" />
                      <rect
                         y="57.418262"
                         x="38.231018"
                         height="36.839832"
                         width="4.1863446"
                         id="rect10139"
                         style="fill:#999999;fill-opacity:1;fill-rule:nonzero;stroke:none" />
                      <rect
                         style="fill:#999999;fill-opacity:1;fill-rule:nonzero;stroke:none"
                         id="rect10159"
                         width="16.619154"
                         height="4.57373"
                         x="32.352596"
                         y="89.588249" />
                      <rect
                         y="55.250015"
                         x="28.208326"
                         height="4.57373"
                         width="24.907694"
                         id="rect10139-2"
                         style="fill:#999999;fill-opacity:1;fill-rule:nonzero;stroke:none" />
                      <rect
                         y="128.36678"
                         x="39.161037"
                         height="21.742849"
                         width="1.8181902"
                         id="rect10139-27"
                         style="fill:#999999;fill-opacity:1;fill-rule:nonzero;stroke:none" />
                    </g>
                  </g>
                </g>
              </g>
            </g>
          </g>
        </g>
      </g>
    </g>
  </g>
</svg>
