<?xml version="1.0" encoding="UTF-8" standalone="no"?>
<!-- Created with Inkscape (http://www.inkscape.org/) -->

<svg
   xmlns:dc="http://purl.org/dc/elements/1.1/"
   xmlns:cc="http://creativecommons.org/ns#"
   xmlns:rdf="http://www.w3.org/1999/02/22-rdf-syntax-ns#"
   xmlns:svg="http://www.w3.org/2000/svg"
   xmlns="http://www.w3.org/2000/svg"
   xmlns:sodipodi="http://sodipodi.sourceforge.net/DTD/sodipodi-0.dtd"
   xmlns:inkscape="http://www.inkscape.org/namespaces/inkscape"
   width="668.4787"
   height="432.7182"
   id="svg44288"
   version="1.1"
   inkscape:version="0.48.3.1 r9886"
   sodipodi:docname="libertad.svg">
  <defs
     id="defs44290" />
  <sodipodi:namedview
     id="base"
     pagecolor="#ffffff"
     bordercolor="#666666"
     borderopacity="1.0"
     inkscape:pageopacity="0.0"
     inkscape:pageshadow="2"
     inkscape:zoom="0.49497475"
     inkscape:cx="42.207502"
     inkscape:cy="326.72109"
     inkscape:document-units="px"
     inkscape:current-layer="layer1"
     showgrid="false"
     fit-margin-top="0"
     fit-margin-left="0"
     fit-margin-right="0"
     fit-margin-bottom="0"
     inkscape:window-width="1280"
     inkscape:window-height="748"
     inkscape:window-x="0"
     inkscape:window-y="31"
     inkscape:window-maximized="1" />
  <metadata
     id="metadata44293">
    <rdf:RDF>
      <cc:Work
         rdf:about="">
        <dc:format>image/svg+xml</dc:format>
        <dc:type
           rdf:resource="http://purl.org/dc/dcmitype/StillImage" />
        <dc:title></dc:title>
      </cc:Work>
    </rdf:RDF>
  </metadata>
  <g
     inkscape:label="Layer 1"
     inkscape:groupmode="layer"
     id="layer1"
     transform="translate(-135.56322,-99.434632)">
    <g
       transform="matrix(1.2732029,0,0,1.2732029,146.81938,167.97219)"
       id="layer1-0"
       inkscape:label="Layer 1">
      <g
         id="g44626"
         inkscape:transform-center-x="17.921343"
         inkscape:transform-center-y="36.804927"
         transform="matrix(0.90281587,0.43002734,-0.43002734,0.90281587,10.781402,-78.189586)">
        <path
           sodipodi:nodetypes="csssc"
           inkscape:connector-curvature="0"
           id="path4198-8"
           d="m 201.93614,286.92401 c -4.13239,-9.41324 -7.73843,-18.41756 9.26939,-25.31148 18.39207,-7.45501 20.10171,-0.63638 24.2341,8.77683 4.13239,9.41322 -0.0177,20.74554 -9.26939,25.31146 -9.2079,4.54426 -20.00909,0.6752 -24.18353,-8.66271"
           style="fill:#000000;fill-opacity:1;fill-rule:nonzero;stroke:none"
           inkscape:transform-center-x="0.64229363"
           inkscape:transform-center-y="46.152562" />
        <path
           style="fill:#c48d55;fill-opacity:1;fill-rule:nonzero;stroke:none"
           d="m 197.96659,237.51897 c -2.09559,-17.94697 3.65511,-38.02802 14.7503,-40.80313 7.06099,-1.76608 23.07151,-3.69323 26.84027,8.01225 3.76876,11.70547 -12.9067,39.7613 -6.19134,57.56117 5.77212,12.21279 -4.92344,-0.6295 -24.5109,10.93874 -19.58744,11.56826 -8.79274,-17.76206 -10.88833,-35.70903 z"
           id="path4083-1-9"
           inkscape:connector-curvature="0"
           sodipodi:nodetypes="zszczz"
           inkscape:transform-center-x="-1.9149879"
           inkscape:transform-center-y="10.038847" />
      </g>
      <g
         id="g44609"
         inkscape:transform-center-x="-60.860076"
         inkscape:transform-center-y="-137.08432"
         transform="matrix(0.94928003,0.3144319,-0.3144319,0.94928003,-15.941361,-72.034136)">
        <path
           sodipodi:nodetypes="zzszz"
           inkscape:connector-curvature="0"
           id="path4138-9"
           d="m 249.0003,125.6862 c 7.30458,5.04804 13.14001,8.1685 -2.8486,31.30428 -15.98859,23.13577 -23.14791,22.15787 -30.41209,17.73155 -7.22975,-4.40535 -11.62465,-10.75237 4.04843,-33.67425 15.6731,-22.92189 21.90765,-20.40961 29.21226,-15.36158 z"
           style="fill:#90673c;fill-opacity:1;fill-rule:nonzero;stroke:none"
           inkscape:transform-center-y="-24.752232"
           inkscape:transform-center-x="-17.409519" />
        <path
           style="fill:#000000;fill-opacity:1;stroke:none"
           d="m 240.27771,139.17107 c -16.33534,-10.21513 -10.71362,-11.61271 3.51006,-24.3518 2.31494,1.32664 6.13607,3.99053 8.03491,5.10897 0.62493,0.36799 -1.26242,4.10743 -0.68961,4.4475 0.43636,0.25896 3.34402,-2.87501 3.74832,-2.6336 4.03969,2.41231 6.44339,3.91546 6.44339,3.91546 -6.27629,21.88583 -6.22101,22.78484 -21.04707,13.5135 z"
           id="path4190"
           inkscape:connector-curvature="0"
           sodipodi:nodetypes="ccssscsc"
           inkscape:transform-center-x="-30.472715"
           inkscape:transform-center-y="-44.731867" />
      </g>
      <path
         inkscape:transform-center-y="-179.65196"
         inkscape:transform-center-x="-11.773722"
         style="fill:#c48d55;fill-opacity:1;fill-rule:nonzero;stroke:none"
         d="m 116.72787,144.95257 c -19.412658,1.70302 -51.974238,5.82417 -56.099738,-41.20231 -4.12551,-47.026467 17.90196,-48.540268 46.452618,-51.868057 21.82197,-2.54352 40.69755,-7.56105 50.70098,13.975366 3.02247,6.507059 0.78569,25.560721 1.15565,29.342321 0.37,3.781602 9.48897,14.1057 3.72811,24.00435 -7.62548,13.10254 -26.52495,24.04532 -45.93762,25.74833 z"
         id="path4138"
         inkscape:connector-curvature="0"
         sodipodi:nodetypes="zzsszsz" />
      <path
         sodipodi:nodetypes="zzsszz"
         inkscape:connector-curvature="0"
         id="path4083"
         d="m 80.727262,228.93733 c -45.66638,-15.12617 -41.25011,-41.74666 -35.18522,-60.05675 6.06489,-18.31011 22.71288,-33.96801 23.65221,-53.54383 0.69871,-14.56108 35.991368,34.83819 41.148948,18.64006 10.56384,-33.17723 49.16608,20.24051 34.95334,64.6338 -14.21274,44.39334 -18.90288,45.45289 -64.569278,30.32672 z"
         style="fill:#c48d55;fill-opacity:1;fill-rule:nonzero;stroke:none"
         inkscape:transform-center-x="5.4686479"
         inkscape:transform-center-y="-102.16639" />
      <path
         inkscape:transform-center-y="-227.69317"
         inkscape:transform-center-x="-9.2807844"
         sodipodi:nodetypes="zscssscsz"
         inkscape:connector-curvature="0"
         id="path4088"
         d="m 106.54313,42.342738 c 18.60369,-1.632044 33.61195,11.802977 44.0722,8.426735 10.46018,-3.376279 -4.82105,-26.929046 -4.82105,-26.929046 0,0 31.63238,24.269629 8.33106,38.914142 -23.30135,14.644513 -24.23249,-6.479277 -46.80092,-4.49941 -22.568388,1.979854 -9.066408,27.457991 -37.319628,12.493708 -32.95103,-17.452442 7.22283,-40.278633 7.22283,-40.278633 0,0 -13.37389,17.163705 -6.53276,23.622514 10.21349,9.642665 17.24457,-10.117959 35.848268,-11.75001 z"
         style="fill:#000000;fill-opacity:1;stroke:none" />
      <path
         inkscape:transform-center-y="-175.56603"
         inkscape:transform-center-x="6.0196937"
         sodipodi:open="true"
         sodipodi:end="12.531133"
         sodipodi:start="6.2546544"
         transform="matrix(4.0468961,-0.35502247,0.35502247,4.0468961,17.382822,-199.76603)"
         d="m 13.889006,75.558964 c 0.02288,0.801643 -0.608436,1.470049 -1.410079,1.492927 -0.801643,0.02288 -1.47005,-0.608436 -1.492927,-1.410079 -0.02288,-0.801644 0.608436,-1.47005 1.410079,-1.492928 0.797844,-0.02277 1.464497,0.602672 1.492617,1.400346"
         sodipodi:ry="1.4520943"
         sodipodi:rx="1.4520943"
         sodipodi:cy="75.600388"
         sodipodi:cx="12.437503"
         id="path4118"
         style="fill:#000000;fill-opacity:1;fill-rule:nonzero;stroke:none"
         sodipodi:type="arc" />
      <path
         inkscape:transform-center-y="-185.25631"
         inkscape:transform-center-x="-52.532186"
         sodipodi:type="arc"
         style="fill:#000000;fill-opacity:1;fill-rule:nonzero;stroke:none"
         id="path4116"
         sodipodi:cx="12.437503"
         sodipodi:cy="75.600388"
         sodipodi:rx="1.4520943"
         sodipodi:ry="1.4520943"
         d="m 13.889006,75.558964 c 0.02288,0.801643 -0.608436,1.470049 -1.410079,1.492927 -0.801643,0.02288 -1.47005,-0.608436 -1.492927,-1.410079 -0.02288,-0.801644 0.608436,-1.47005 1.410079,-1.492928 0.797844,-0.02277 1.464497,0.602672 1.492617,1.400346"
         transform="matrix(4.0468961,-0.35502247,0.35502247,4.0468961,75.934702,-209.45631)"
         sodipodi:start="6.2546544"
         sodipodi:end="12.531133"
         sodipodi:open="true" />
      <path
         inkscape:transform-center-y="-186.4001"
         inkscape:transform-center-x="-53.153269"
         sodipodi:open="true"
         sodipodi:end="12.531133"
         sodipodi:start="6.2546544"
         transform="matrix(5.5744529,-0.48903058,0.48903058,5.5744529,36.089562,-320.23095)"
         d="m 15.278249,75.010568 c 0.01194,0.418249 -0.317445,0.766983 -0.735694,0.778919 -0.418248,0.01194 -0.766982,-0.317445 -0.778918,-0.735694 -0.01194,-0.418248 0.317445,-0.766982 0.735693,-0.778918 0.416267,-0.01188 0.764086,0.314437 0.778757,0.730615"
         sodipodi:ry="0.75761443"
         sodipodi:rx="0.75761443"
         sodipodi:cy="75.032181"
         sodipodi:cx="14.520943"
         id="path4136"
         style="fill:#ffffff;fill-opacity:1;fill-rule:nonzero;stroke:none"
         sodipodi:type="arc" />
      <path
         inkscape:transform-center-y="-176.72961"
         inkscape:transform-center-x="5.1731116"
         sodipodi:type="arc"
         style="fill:#ffffff;fill-opacity:1;fill-rule:nonzero;stroke:none"
         id="path4131"
         sodipodi:cx="14.520943"
         sodipodi:cy="75.032181"
         sodipodi:rx="0.75761443"
         sodipodi:ry="0.75761443"
         d="m 15.278249,75.010568 c 0.01194,0.418249 -0.317445,0.766983 -0.735694,0.778919 -0.418248,0.01194 -0.766982,-0.317445 -0.778918,-0.735694 -0.01194,-0.418248 0.317445,-0.766982 0.735693,-0.778918 0.416267,-0.01188 0.764086,0.314437 0.778757,0.730615"
         transform="matrix(5.5744529,-0.48903058,0.48903058,5.5744529,-22.236822,-310.56046)"
         sodipodi:start="6.2546544"
         sodipodi:end="12.531133"
         sodipodi:open="true" />
      <path
         inkscape:transform-center-y="-221.47894"
         inkscape:transform-center-x="-10.529699"
         sodipodi:nodetypes="sssccsszscs"
         inkscape:connector-curvature="0"
         id="path4133"
         d="m 106.50927,77.72977 c -2.22069,0.377608 15.45689,-13.415483 7.82323,-10.59232 -12.87677,4.762203 -8.76644,-10.336545 -11.37652,-13.988875 0,0 5.44111,-3.264792 10.11427,-3.558887 -9.34948,-9.780541 -21.087248,-1.511719 -21.087248,-1.511719 0,0 -0.49255,-2.84005 1.61136,-6.015767 1.65202,-2.493712 4.90493,-5.194374 11.254348,-6.889352 3.58721,-0.957613 20.85185,-5.069292 24.90678,10.499825 4.05495,15.569093 -16.83362,12.138659 -16.83362,12.138659 -0.17179,0.200282 12.76233,9.072605 12.76233,9.072605 -3.36801,4.105556 -17.62361,10.582108 -19.17493,10.845831 z"
         style="fill:#5f2c1b;fill-opacity:1;fill-rule:nonzero;stroke:none" />
      <path
         inkscape:transform-center-y="-155.84227"
         inkscape:transform-center-x="-33.705785"
         style="fill:#dabe8b;fill-opacity:1;stroke:none"
         d="m 138.20313,99.299612 c 9.3281,-0.81832 26.53547,-3.237162 28.51008,19.271468 1.43439,16.35046 -7.59348,23.78419 -24.3745,25.25634 -16.78101,1.47215 -38.29274,-0.67776 -40.56269,-26.55282 -1.7317,-19.739748 27.09908,-17.15666 36.42711,-17.974988 z"
         id="path4140"
         inkscape:connector-curvature="0"
         sodipodi:nodetypes="cszsc" />
      <path
         style="fill:#1a1a1a;fill-opacity:1;fill-rule:nonzero;stroke:none"
         d="m 152.31836,103.93539 c 1.38597,1.01409 0.56968,3.37351 -1.82317,5.26983 -2.39284,1.89637 -5.45617,2.6116 -6.84213,1.59751 -1.38591,-1.01409 -0.56969,-3.37348 1.82318,-5.26985 2.38146,-1.88738 5.42986,-2.60631 6.82515,-1.60974"
         id="path4142"
         inkscape:connector-curvature="0"
         inkscape:transform-center-x="-47.410089"
         inkscape:transform-center-y="-169.96226" />
      <path
         inkscape:transform-center-y="-168.67414"
         inkscape:transform-center-x="-32.726836"
         inkscape:connector-curvature="0"
         id="path4124"
         d="m 128.43817,106.03033 c -1.18822,1.23991 0.0264,3.42116 2.71287,4.87191 2.68646,1.45078 5.82752,1.62171 7.01574,0.38179 1.18818,-1.2399 -0.0264,-3.42114 -2.71287,-4.8719 -2.67372,-1.44391 -5.80072,-1.62109 -7.0012,-0.3968"
         style="fill:#1a1a1a;fill-opacity:1;fill-rule:nonzero;stroke:none" />
      <path
         inkscape:transform-center-y="-171.96408"
         inkscape:transform-center-x="-27.591302"
         style="fill:none;stroke:#895c3a;stroke-width:1.10791445px;stroke-linecap:butt;stroke-linejoin:miter;stroke-opacity:1"
         d="m 124.33479,108.79885 c 0,0 -3.99466,-4.798 0.29021,-6.27712 4.28488,-1.47915 9.06652,0.30785 9.06652,0.30785"
         id="path4164"
         inkscape:connector-curvature="0"
         sodipodi:nodetypes="csc" />
      <path
         inkscape:transform-center-y="-173.70945"
         inkscape:transform-center-x="-50.754448"
         sodipodi:nodetypes="csc"
         inkscape:connector-curvature="0"
         id="path4144"
         d="m 155.93454,106.74887 c 0,0 3.09824,-5.42023 -1.37873,-6.13072 -4.47696,-0.710448 -8.87442,1.88178 -8.87442,1.88178"
         style="fill:none;stroke:#895c3a;stroke-width:1.10791445px;stroke-linecap:butt;stroke-linejoin:miter;stroke-opacity:1" />
      <path
         style="fill:#e77b7b;fill-opacity:1;stroke:none"
         d="m 155.00625,126.56212 -7.14286,-2.09821 -6.29464,0.3125 -9.28572,3.66071 c 0,0 0.3125,8.52679 9.86608,8.70536 9.55357,0.17857 12.85714,-10.58036 12.85714,-10.58036 z"
         id="path45161"
         inkscape:connector-curvature="0" />
      <path
         inkscape:transform-center-y="-149.73125"
         inkscape:transform-center-x="-43.327053"
         sodipodi:nodetypes="csc"
         inkscape:connector-curvature="0"
         id="path4166"
         d="m 124.00361,126.21113 c 9.9964,5.83044 10.38532,-0.86258 20.56957,-1.75601 10.18425,-0.89345 9.69003,6.88403 19.49644,-2.77089"
         style="fill:none;stroke:#895c3a;stroke-width:1.10791445;stroke-opacity:1" />
      <path
         inkscape:transform-center-y="-166.28932"
         inkscape:transform-center-x="44.021256"
         sodipodi:nodetypes="czszzc"
         inkscape:connector-curvature="0"
         id="path4188-9"
         d="m 43.690882,139.12158 c -8.75183,-1.49857 0.65422,-20.67313 2.5474,-27.29381 1.89317,-6.62068 11.65078,-29.850576 20.10387,-28.89877 8.41302,0.94732 7.2656,11.51394 5.46013,21.53118 -1.80546,10.01719 -19.35961,36.15998 -28.11144,34.66141 z"
         style="fill:#90673c;fill-opacity:1;fill-rule:nonzero;stroke:none" />
      <g
         id="g44621"
         inkscape:transform-center-x="44.129241"
         inkscape:transform-center-y="23.265898"
         transform="matrix(0.41932658,0.90783545,-0.90783545,0.41932658,203.11808,-43.71018)">
        <g
           id="g44617">
          <path
             inkscape:transform-center-y="-9.3177058"
             inkscape:transform-center-x="-15.988354"
             style="fill:#000000;fill-opacity:1;fill-rule:nonzero;stroke:none"
             d="m 160.48478,305.21167 c -11.84802,-2.09288 -22.94456,-4.37739 -17.94432,-22.23092 5.40719,-19.30661 13.11311,-16.74482 24.96109,-14.65196 11.84799,2.09287 19.8819,12.04602 17.9443,22.23091 -1.92847,10.13666 -13.01265,16.69189 -24.81713,14.67695"
             id="path4198"
             inkscape:connector-curvature="0"
             sodipodi:nodetypes="csssc" />
          <path
             inkscape:transform-center-y="10.038847"
             inkscape:transform-center-x="-1.9149879"
             sodipodi:nodetypes="zszczz"
             inkscape:connector-curvature="0"
             id="path4083-1"
             d="m 141.34001,245.21986 c -2.09559,-17.94697 3.65511,-38.02803 14.7503,-40.80314 7.06099,-1.76608 23.07151,-3.69323 26.84027,8.01225 3.76876,11.70548 -12.9067,39.76131 -6.19134,57.56118 5.77212,12.21279 -4.92344,-0.6295 -24.5109,10.93874 -19.58744,11.56826 -8.79274,-17.76206 -10.88833,-35.70903 z"
             style="fill:#c48d55;fill-opacity:1;fill-rule:nonzero;stroke:none" />
        </g>
      </g>
      <g
         id="g44613"
         inkscape:transform-center-x="-22.949101"
         inkscape:transform-center-y="-14.247836"
         transform="matrix(-0.77682402,-0.62971775,0.62971775,-0.77682402,77.573542,371.0368)">
        <path
           style="fill:#90673c;fill-opacity:1;fill-rule:nonzero;stroke:none"
           d="m 132.17708,223.42554 c -8.36558,-2.97608 -14.81149,-4.47265 -5.38539,-30.96885 9.42611,-26.49617 16.59352,-27.41263 24.75849,-25.02638 8.12626,2.37491 14.01974,7.36159 4.84275,33.56922 -9.17704,26.20766 -15.85028,25.40211 -24.21585,22.42601 z"
           id="path4188"
           inkscape:connector-curvature="0"
           sodipodi:nodetypes="zzszz"
           inkscape:transform-center-y="28.189309"
           inkscape:transform-center-x="10.393717" />
        <path
           sodipodi:nodetypes="ccssscsc"
           inkscape:connector-curvature="0"
           id="path4192"
           d="m 138.02474,208.02323 c 18.42888,5.61848 13.36361,8.42914 2.93966,24.42722 -2.58017,-0.67938 -6.96236,-2.25861 -9.0866,-2.84509 -0.69909,-0.19304 0.15147,-4.29439 -0.49001,-4.4739 -0.4887,-0.13663 -2.48193,3.64532 -2.93504,3.51729 -4.52785,-1.27947 -7.23963,-2.10624 -7.23963,-2.10624 0.37246,-22.76493 0.0854,-23.6187 16.81162,-18.51932 z"
           style="fill:#000000;fill-opacity:1;stroke:none"
           inkscape:transform-center-x="16.209003"
           inkscape:transform-center-y="51.428871" />
      </g>
      <path
         sodipodi:nodetypes="cszsc"
         inkscape:connector-curvature="0"
         id="path4086"
         d="m 126.58755,150.75331 c 10.93715,3.62274 24.66976,-8.39225 21.36796,41.33022 -2.12924,32.06474 -15.27856,52.91948 -48.631178,41.87202 -33.35264,-11.04746 -40.11584,-13.8399 -24.12537,-62.11564 12.19894,-36.82898 40.451438,-24.70933 51.388588,-21.0866 z"
         style="fill:#dabe8b;fill-opacity:1;stroke:none"
         inkscape:transform-center-x="-7.1171287"
         inkscape:transform-center-y="-85.895261" />
      <path
         style="fill:none;stroke:#894b3a;stroke-width:1px;stroke-linecap:butt;stroke-linejoin:miter;stroke-opacity:1"
         d="m 132.28303,128.57105 c 0,0 0.53572,8.39286 10,8.39286 9.46429,0 12.85715,-10.71428 12.85715,-10.71428"
         id="path44643"
         inkscape:connector-curvature="0"
         sodipodi:nodetypes="csc" />
    </g>
    <g
       transform="matrix(0,1.2732029,-1.2732029,0,852.90355,-18.493305)"
       id="layer1-5">
      <g
         transform="translate(32.142857,50.714286)"
         id="g3961">
        <path
           d="m 151.50437,172.92627 c 0,0 -12.876,27.134 -0.36617,39.05 12.50983,11.916 4.7789,-12.211 4.7789,-12.211 0,0 -0.30602,20.345 8.3883,12.517 6.392,-5.7551 3.9718,-4.1699 6.4342,-3.4151 3.8261,-17.89 7.4056,-48.495 -19.235,-35.941 z"
           id="path3899"
           inkscape:connector-curvature="0"
           style="fill:#e1cc16"
           inkscape:transform-center-x="5.7142829" />
        <path
           d="m 188.6969,167.83677 c 0,0 12.71184,29.22889 -1.89983,36.73959 -13.69825,7.0416 -5.48732,-10.73662 -5.48732,-10.73662 0,0 -4.49119,19.13129 -5.67532,7.68784 -0.76968,-7.43783 2.21785,2.05541 -0.17648,2.36941 -0.8738,-18.26729 -9.57258,-53.04904 13.23903,-36.06024 z"
           id="path3899-6"
           inkscape:connector-curvature="0"
           style="fill:#e1cc16"
           inkscape:transform-center-x="15.714286" />
        <path
           d="m 103.64498,76.07701 c -28.027417,2.77225 -7.280066,95.85951 31.82501,99.4694 13.47095,-54.81985 -2.38097,-104.16079 -31.8304,-99.46933 z"
           id="path3893-4"
           inkscape:connector-curvature="0"
           style="fill:#2b2b31"
           inkscape:transform-center-x="49.151479"
           inkscape:transform-center-y="2.5747369" />
        <path
           d="m 174.92681,106.48986 c 29.99361,60.686 8.16358,74.78021 -19.28591,74.28528 -27.44949,-0.49492 -39.30251,-13.93875 -57.856817,-53.92857 -18.554299,-39.98982 3.853767,-49.53871 7.294857,-94.425712 0.53137,-6.9316 25.0451,16.212 33.41911,16.212 20.71099,0 19.28777,23.176002 36.42876,57.857002 z"
           id="path2985"
           inkscape:connector-curvature="0"
           style="fill:#3f4753;fill-rule:nonzero"
           sodipodi:nodetypes="szzsss" />
        <path
           d="m 161.31451,148.92449 c 4.09791,33.98546 17.55269,29.1977 22.84254,20.47198 4.36736,-7.20439 11.10666,-26.63865 -18.21431,-79.06354 -9.07135,-16.21962 -3.16651,-26.381557 -22.48597,-39.57343 -17.94996,44.243658 14.29016,75.02857 17.85774,98.16499 z"
           id="path3919"
           inkscape:connector-curvature="0"
           style="fill:#e5e5e6"
           inkscape:transform-center-x="49.050719"
           inkscape:transform-center-y="11.087531"
           sodipodi:nodetypes="ccscc" />
        <path
           d="m 111.10956,84.40011 c 33.80158,-9.56068 61.0286,83.39201 17.97416,103.48263 C 83.467926,144.19658 74.621849,92.83891 111.10956,84.40011 z"
           id="path3893"
           inkscape:connector-curvature="0"
           style="fill:#2b2b31"
           inkscape:transform-center-x="46.888548"
           inkscape:transform-center-y="7.5969764" />
        <g
           id="g45308"
           transform="matrix(0,-1,1,0,18.838168,183.97657)">
          <path
             style="fill:#3f4753;fill-rule:nonzero"
             inkscape:connector-curvature="0"
             id="path3873"
             d="m 187.29,80.576 c 9.3149,23.852 -2.5761,50.002 -41.071,44.643 -25.652,-3.5714 -44.643,-20.851 -43.214,-41.786 1.5711,-23.024 19.35,-42.145 43.214,-41.786 47.438,0.71429 36.124,26.259 41.071,38.929 z" />
          <path
             style="fill:#000000;fill-rule:nonzero"
             inkscape:connector-curvature="0"
             id="path3887"
             d="m 356.41,148.08 c 0.57394,20.702 -15.264,37.964 -35.375,38.554 -20.111,0.59082 -36.879,-15.713 -37.453,-36.415 -0.57394,-20.702 15.264,-37.964 35.375,-38.554 20.015,-0.58802 36.74,15.564 37.445,36.164"
             transform="matrix(0.11429278,0,0,0.11429278,111.87529,68.172805)" />
          <path
             style="fill:#000000;fill-rule:nonzero"
             inkscape:connector-curvature="0"
             id="path3885"
             d="m 356.41,148.08 c 0.57394,20.702 -15.264,37.964 -35.375,38.554 -20.111,0.59082 -36.879,-15.713 -37.453,-36.415 -0.57394,-20.702 15.264,-37.964 35.375,-38.554 20.015,-0.58802 36.74,15.564 37.445,36.164"
             transform="matrix(0.11429278,0,0,0.11429278,144.44672,61.315662)" />
          <path
             style="fill:#e1cc16"
             inkscape:connector-curvature="0"
             id="path3889"
             d="m 167.32,93.986 c 1.5164,-3.2622 -0.7212,-8.6381 4.3609,-9.0338 7.995,-0.62247 23.736,8.0124 24.629,10.334 0.26786,7.8571 -12.935,11.774 -25.378,11.075 -12.443,-0.69928 -3.6119,-12.375 -3.6119,-12.375 z" />
          <path
             style="fill:#ffffff;fill-rule:nonzero"
             inkscape:connector-curvature="0"
             id="path3921"
             d="m 27.142,129.42 c 0.04502,1.5773 -1.1972,2.8925 -2.7745,2.9375 -1.5773,0.045 -2.8925,-1.1972 -2.9375,-2.7745 -0.04501,-1.5773 1.1972,-2.8925 2.7745,-2.9375 1.5698,-0.0448 2.8815,1.1858 2.9369,2.7553"
             transform="translate(125.42857,-45.285714)" />
          <path
             style="fill:#ffffff;fill-rule:nonzero"
             inkscape:connector-curvature="0"
             id="path3921-4"
             d="m 27.142,129.42 c 0.04502,1.5773 -1.1972,2.8925 -2.7745,2.9375 -1.5773,0.045 -2.8925,-1.1972 -2.9375,-2.7745 -0.04501,-1.5773 1.1972,-2.8925 2.7745,-2.9375 1.5698,-0.0448 2.8815,1.1858 2.9369,2.7553"
             transform="translate(157.625,-52.249997)" />
        </g>
        <path
           style="fill:none;stroke:#000000;stroke-width:1px;stroke-linecap:butt;stroke-linejoin:miter;stroke-opacity:1"
           d="m 337.85714,355.93361 c 0,0 27.14286,-40.71429 82.14286,-47.14286 l 0,-0.71428"
           id="path45316"
           inkscape:connector-curvature="0"
           transform="matrix(0,-1,1,0,-131.8068,648.2629)" />
        <path
           style="fill:none;stroke:#000000;stroke-width:1px;stroke-linecap:butt;stroke-linejoin:miter;stroke-opacity:1"
           d="m 210.91253,320.04862 c 0,0 -40.7143,-27.14286 -47.14287,-82.14286 l -0.71428,0"
           id="path45316-8"
           inkscape:connector-curvature="0" />
        <path
           style="fill:none;stroke:#d41a1a;stroke-width:1px;stroke-linecap:butt;stroke-linejoin:miter;stroke-opacity:1"
           d="m 152.94643,178.70516 c 0,0 1.78571,6.25 -1.51786,9.91071 l 0,0"
           id="path45355"
           inkscape:connector-curvature="0"
           transform="matrix(0,-1,1,0,60.480193,512.69968)" />
      </g>
    </g>
  </g>
</svg>
