<?xml version="1.0" encoding="UTF-8" standalone="no"?>
<!-- Created with Inkscape (http://www.inkscape.org/) -->

<svg
   xmlns:dc="http://purl.org/dc/elements/1.1/"
   xmlns:cc="http://creativecommons.org/ns#"
   xmlns:rdf="http://www.w3.org/1999/02/22-rdf-syntax-ns#"
   xmlns:svg="http://www.w3.org/2000/svg"
   xmlns="http://www.w3.org/2000/svg"
   xmlns:sodipodi="http://sodipodi.sourceforge.net/DTD/sodipodi-0.dtd"
   xmlns:inkscape="http://www.inkscape.org/namespaces/inkscape"
   width="202.70987"
   height="198.49007"
   id="svg8621"
   version="1.1"
   inkscape:version="0.48.3.1 r9886"
   sodipodi:docname="New document 54">
  <defs
     id="defs8623" />
  <sodipodi:namedview
     id="base"
     pagecolor="#ffffff"
     bordercolor="#666666"
     borderopacity="1.0"
     inkscape:pageopacity="0.0"
     inkscape:pageshadow="2"
     inkscape:zoom="0.35"
     inkscape:cx="104.90944"
     inkscape:cy="273.54236"
     inkscape:document-units="px"
     inkscape:current-layer="layer1"
     showgrid="false"
     fit-margin-top="0"
     fit-margin-left="0"
     fit-margin-right="0"
     fit-margin-bottom="0"
     inkscape:window-width="418"
     inkscape:window-height="436"
     inkscape:window-x="856"
     inkscape:window-y="31"
     inkscape:window-maximized="0" />
  <metadata
     id="metadata8626">
    <rdf:RDF>
      <cc:Work
         rdf:about="">
        <dc:format>image/svg+xml</dc:format>
        <dc:type
           rdf:resource="http://purl.org/dc/dcmitype/StillImage" />
        <dc:title></dc:title>
      </cc:Work>
    </rdf:RDF>
  </metadata>
  <g
     inkscape:label="Layer 1"
     inkscape:groupmode="layer"
     id="layer1"
     transform="translate(-270.09056,-607.41448)">
    <g
       id="g8566"
       transform="matrix(0.84453964,0,0,0.84453964,237.73181,575.4244)">
      <g
         transform="translate(-21,83)"
         id="g8537">
        <path
           style="fill:#a7c5e7;fill-opacity:1;stroke:none"
           d="m 304,112.7182 125,-51.999998 0,178.999998 -123,-44 z"
           id="path8531"
           inkscape:connector-curvature="0"
           transform="translate(-170.0943,-105.83948)"
           sodipodi:nodetypes="ccccc" />
        <path
           style="fill:none;stroke:#ffffff;stroke-width:3;stroke-linecap:butt;stroke-linejoin:miter;stroke-miterlimit:4;stroke-opacity:1;stroke-dasharray:none"
           d="m 305,156.7182 125,0"
           id="path8533"
           inkscape:connector-curvature="0"
           transform="translate(-170.0943,-105.83948)"
           sodipodi:nodetypes="cc" />
        <path
           style="fill:none;stroke:#ffffff;stroke-width:3;stroke-linecap:butt;stroke-linejoin:miter;stroke-miterlimit:4;stroke-opacity:1;stroke-dasharray:none"
           d="M 359,89.718202 359,214.7182"
           id="path8535"
           inkscape:connector-curvature="0"
           transform="translate(-170.0943,-105.83948)" />
      </g>
      <path
         transform="translate(-170.0943,-105.83948)"
         inkscape:connector-curvature="0"
         id="path8542"
         d="m 284,248.7182 -43,-12 c 0,0 -29,-33 -31,-5 -2,28 29,3 29,3"
         style="fill:none;stroke:#000000;stroke-width:3;stroke-linecap:butt;stroke-linejoin:miter;stroke-miterlimit:4;stroke-opacity:1;stroke-dasharray:none" />
      <path
         inkscape:connector-curvature="0"
         id="path8544"
         d="m 235.4571,147.43012 28.73822,63.0839 c 0,0 25.23356,25.23355 3.50466,24.53262 -21.7289,-0.70093 -3.50466,-25.23356 -3.50466,-25.23356"
         style="fill:none;stroke:#000000;stroke-width:3.55223107;stroke-linecap:butt;stroke-linejoin:miter;stroke-miterlimit:4;stroke-opacity:1;stroke-dasharray:none" />
      <path
         transform="translate(-170.0943,-105.83948)"
         inkscape:connector-curvature="0"
         id="path8546"
         d="m 317,289.7182 1,72 -42,1 c 5,-32 39,-2 39,-2"
         style="fill:none;stroke:#000000;stroke-width:3;stroke-linecap:butt;stroke-linejoin:miter;stroke-miterlimit:4;stroke-opacity:1;stroke-dasharray:none" />
      <path
         inkscape:connector-curvature="0"
         id="path8546-9"
         d="m 192.9057,198.37872 1,72.00001 -42,1 c 5,-32 39,-2 39,-2"
         style="fill:none;stroke:#000000;stroke-width:3;stroke-linecap:butt;stroke-linejoin:miter;stroke-miterlimit:4;stroke-opacity:1;stroke-dasharray:none" />
      <path
         style="fill:#ffffff;fill-opacity:1;fill-rule:nonzero;stroke:none"
         d="m 375.57596,392.26946 c 0.43662,-1.81404 2.22932,-5.19623 3.34741,-6.31536 2.60668,-2.60913 6.92748,-2.90494 12.2802,-0.84071 2.89638,1.11697 7.33119,3.63437 10.54052,5.98329 l 1.7607,1.28867 -6.53367,0.22549 c -3.59353,0.12403 -9.92868,0.31053 -14.07812,0.41445 l -7.54443,0.18894 0.22739,-0.94477 0,0 z"
         id="path8578"
         inkscape:connector-curvature="0"
         transform="matrix(1.184077,0,0,1.184077,-290.50964,-195.92714)" />
      <path
         style="fill:#ffffff;fill-opacity:1;fill-rule:nonzero;stroke:none"
         d="m 336.71162,380.12129 c 1.33477,-4.31871 2.80949,-6.51731 5.23482,-7.80437 1.88988,-1.00291 5.88082,-1.0504 8.71624,-0.10372 2.97142,0.99209 7.26045,3.23549 10.76962,5.63311 l 3.16823,2.16467 -2.6379,0.2248 c -1.45084,0.12364 -7.78268,0.33238 -14.07077,0.46387 l -11.43288,0.23906 0.25264,-0.81742 z"
         id="path8580"
         inkscape:connector-curvature="0"
         transform="matrix(1.184077,0,0,1.184077,-290.50964,-195.92714)" />
    </g>
  </g>
</svg>
