<?xml version="1.0" encoding="UTF-8" standalone="no"?>
<!-- Created with Inkscape (http://www.inkscape.org/) -->

<svg
   xmlns:dc="http://purl.org/dc/elements/1.1/"
   xmlns:cc="http://creativecommons.org/ns#"
   xmlns:rdf="http://www.w3.org/1999/02/22-rdf-syntax-ns#"
   xmlns:svg="http://www.w3.org/2000/svg"
   xmlns="http://www.w3.org/2000/svg"
   xmlns:sodipodi="http://sodipodi.sourceforge.net/DTD/sodipodi-0.dtd"
   xmlns:inkscape="http://www.inkscape.org/namespaces/inkscape"
   width="668.4787"
   height="432.7182"
   id="svg44288"
   version="1.1"
   inkscape:version="0.48.3.1 r9886"
   sodipodi:docname="secreto.svg">
  <defs
     id="defs44290">
    <inkscape:perspective
       sodipodi:type="inkscape:persp3d"
       inkscape:vp_x="64.999999 : 397.78767 : 1"
       inkscape:vp_y="0 : 1000 : 0"
       inkscape:vp_z="84.907276 : 515.64481 : 1"
       inkscape:persp3d-origin="334.23935 : 144.2394 : 1"
       id="perspective7631" />
  </defs>
  <sodipodi:namedview
     id="base"
     pagecolor="#ffffff"
     bordercolor="#666666"
     borderopacity="1.0"
     inkscape:pageopacity="0.0"
     inkscape:pageshadow="2"
     inkscape:zoom="1.4142136"
     inkscape:cx="400.04973"
     inkscape:cy="152.44093"
     inkscape:document-units="px"
     inkscape:current-layer="g8469"
     showgrid="false"
     fit-margin-top="0"
     fit-margin-left="0"
     fit-margin-right="0"
     fit-margin-bottom="0"
     inkscape:window-width="1280"
     inkscape:window-height="748"
     inkscape:window-x="0"
     inkscape:window-y="31"
     inkscape:window-maximized="1"
     showguides="true"
     inkscape:guide-bbox="true" />
  <metadata
     id="metadata44293">
    <rdf:RDF>
      <cc:Work
         rdf:about="">
        <dc:format>image/svg+xml</dc:format>
        <dc:type
           rdf:resource="http://purl.org/dc/dcmitype/StillImage" />
        <dc:title />
      </cc:Work>
    </rdf:RDF>
  </metadata>
  <g
     inkscape:label="Layer 1"
     inkscape:groupmode="layer"
     id="layer1"
     transform="translate(-135.56322,-99.434632)">
    <g
       transform="matrix(0,1.2732029,-1.2732029,0,852.90355,-18.493305)"
       id="layer1-5">
      <g
         transform="translate(32.142857,50.714286)"
         id="g3961" />
      <g
         id="g6354"
         transform="matrix(0.87292113,0.57054744,-0.48786136,1.0208698,228.16831,-185.6481)">
        <g
           transform="matrix(-0.32764493,-0.58624889,0.68561038,-0.38317643,210.99139,484.96478)"
           id="layer1-56"
           inkscape:label="Layer 1">
          <g
             id="g8469">
            <rect
               style="fill:#937739;fill-opacity:1;fill-rule:nonzero;stroke:none"
               id="rect8576"
               width="671.75146"
               height="74.953316"
               x="-170.80142"
               y="254.04674"
               ry="7.3978806" />
            <g
               id="g8566"
               transform="matrix(0.84453965,0,0,0.84453965,127.25261,53.628755)">
              <g
                 transform="translate(-21,83)"
                 id="g8537">
                <path
                   style="fill:#a7c5e7;fill-opacity:1;stroke:none"
                   d="m 304,112.7182 125,-51.999998 0,178.999998 -123,-44 z"
                   id="path8531"
                   inkscape:connector-curvature="0"
                   transform="translate(-170.0943,-105.83948)"
                   sodipodi:nodetypes="ccccc" />
                <path
                   style="fill:none;stroke:#ffffff;stroke-width:3;stroke-linecap:butt;stroke-linejoin:miter;stroke-miterlimit:4;stroke-opacity:1;stroke-dasharray:none"
                   d="m 305,156.7182 125,0"
                   id="path8533"
                   inkscape:connector-curvature="0"
                   transform="translate(-170.0943,-105.83948)"
                   sodipodi:nodetypes="cc" />
                <path
                   style="fill:none;stroke:#ffffff;stroke-width:3;stroke-linecap:butt;stroke-linejoin:miter;stroke-miterlimit:4;stroke-opacity:1;stroke-dasharray:none"
                   d="M 359,89.718202 359,214.7182"
                   id="path8535"
                   inkscape:connector-curvature="0"
                   transform="translate(-170.0943,-105.83948)" />
              </g>
              <path
                 transform="translate(-170.0943,-105.83948)"
                 inkscape:connector-curvature="0"
                 id="path8542"
                 d="m 284,248.7182 -43,-12 c 0,0 -29,-33 -31,-5 -2,28 29,3 29,3"
                 style="fill:none;stroke:#000000;stroke-width:3;stroke-linecap:butt;stroke-linejoin:miter;stroke-miterlimit:4;stroke-opacity:1;stroke-dasharray:none" />
              <path
                 inkscape:connector-curvature="0"
                 id="path8544"
                 d="m 235.4571,147.43012 28.73822,63.0839 c 0,0 25.23356,25.23355 3.50466,24.53262 -21.7289,-0.70093 -3.50466,-25.23356 -3.50466,-25.23356"
                 style="fill:none;stroke:#000000;stroke-width:3.55223107;stroke-linecap:butt;stroke-linejoin:miter;stroke-miterlimit:4;stroke-opacity:1;stroke-dasharray:none" />
              <path
                 transform="translate(-170.0943,-105.83948)"
                 inkscape:connector-curvature="0"
                 id="path8546"
                 d="m 317,289.7182 1,72 -42,1 c 5,-32 39,-2 39,-2"
                 style="fill:none;stroke:#000000;stroke-width:3;stroke-linecap:butt;stroke-linejoin:miter;stroke-miterlimit:4;stroke-opacity:1;stroke-dasharray:none" />
              <path
                 inkscape:connector-curvature="0"
                 id="path8546-9"
                 d="m 192.9057,198.37872 1,72.00001 -42,1 c 5,-32 39,-2 39,-2"
                 style="fill:none;stroke:#000000;stroke-width:3;stroke-linecap:butt;stroke-linejoin:miter;stroke-miterlimit:4;stroke-opacity:1;stroke-dasharray:none" />
              <path
                 style="fill:#ffffff;fill-opacity:1;fill-rule:nonzero;stroke:none"
                 d="m 375.57596,392.26946 c 0.43662,-1.81404 2.22932,-5.19623 3.34741,-6.31536 2.60668,-2.60913 6.92748,-2.90494 12.2802,-0.84071 2.89638,1.11697 7.33119,3.63437 10.54052,5.98329 l 1.7607,1.28867 -6.53367,0.22549 c -3.59353,0.12403 -9.92868,0.31053 -14.07812,0.41445 l -7.54443,0.18894 0.22739,-0.94477 0,0 z"
                 id="path8578"
                 inkscape:connector-curvature="0"
                 transform="matrix(1.184077,0,0,1.184077,-290.50964,-195.92714)" />
              <path
                 style="fill:#ffffff;fill-opacity:1;fill-rule:nonzero;stroke:none"
                 d="m 336.71162,380.12129 c 1.33477,-4.31871 2.80949,-6.51731 5.23482,-7.80437 1.88988,-1.00291 5.88082,-1.0504 8.71624,-0.10372 2.97142,0.99209 7.26045,3.23549 10.76962,5.63311 l 3.16823,2.16467 -2.6379,0.2248 c -1.45084,0.12364 -7.78268,0.33238 -14.07077,0.46387 l -11.43288,0.23906 0.25264,-0.81742 z"
                 id="path8580"
                 inkscape:connector-curvature="0"
                 transform="matrix(1.184077,0,0,1.184077,-290.50964,-195.92714)" />
            </g>
            <path
               style="fill:#201e0d;fill-opacity:1;fill-rule:nonzero;stroke:none"
               d="m 410.61004,276.85685 c 0.40648,5.85548 -10.81044,10.73775 -25.05369,10.90486 -14.24325,0.1671 -26.1192,-4.44423 -26.52569,-10.29971 -0.40648,-5.85548 10.81044,-10.73776 25.05369,-10.90486 14.17575,-0.16632 26.02055,4.40212 26.52016,10.22861"
               id="path8675"
               inkscape:connector-curvature="0" />
            <g
               id="g8699"
               transform="translate(20,-8)">
              <path
                 sodipodi:open="true"
                 sodipodi:end="12.531133"
                 sodipodi:start="6.2546544"
                 transform="translate(53.652959,-61.170432)"
                 d="m 123.02651,186.64613 c 0.38991,13.66279 -10.36987,25.05476 -24.03266,25.44468 -13.662788,0.38991 -25.054756,-10.36987 -25.444673,-24.03266 -0.389918,-13.66279 10.369869,-25.05476 24.032657,-25.44467 13.598036,-0.38807 24.960126,10.27163 25.439386,23.86676"
                 sodipodi:ry="24.748737"
                 sodipodi:rx="24.748737"
                 sodipodi:cy="187.35214"
                 sodipodi:cx="98.287842"
                 id="path8679"
                 style="fill:#201e0d;fill-opacity:1;fill-rule:nonzero;stroke:none"
                 sodipodi:type="arc" />
              <path
                 inkscape:connector-curvature="0"
                 id="path8677"
                 d="m 130.60628,140.78832 42.4264,0 -21.2132,62.22539 z"
                 style="fill:#beb52e;fill-opacity:1;stroke:none" />
            </g>
            <path
               style="fill:#f9f9f9;fill-opacity:1;fill-rule:nonzero;stroke:none"
               d="m 349.94787,246.1184 c 0.12761,-0.0511 0.28008,-0.0448 0.33882,0.014 0.0587,0.0587 -0.0457,0.10053 -0.23202,0.0928 -0.20593,-0.008 -0.24782,-0.0504 -0.1068,-0.1068 z"
               id="path8689"
               inkscape:connector-curvature="0" />
            <path
               style="fill:#f9f9f9;fill-opacity:1;fill-rule:nonzero;stroke:none"
               d="m 348.52261,246.12208 c 0.12153,-0.049 0.32041,-0.049 0.44194,0 0.12153,0.049 0.0221,0.0892 -0.22097,0.0892 -0.24307,0 -0.34251,-0.0401 -0.22097,-0.0892 z"
               id="path8691"
               inkscape:connector-curvature="0" />
            <g
               id="g8733">
              <path
                 sodipodi:nodetypes="ssscs"
                 inkscape:connector-curvature="0"
                 id="path8703"
                 d="m 122.79232,244.6111 c -22.64119,0.64615 -41.519304,-17.18435 -42.165453,-39.82554 -0.646149,-22.64119 17.184355,-41.51931 39.825543,-42.16546 22.53389,-0.64309 41.36249,17.02156 42.16107,39.68808 0.65054,22.77865 -17.17997,41.65677 -39.82116,42.30292 z"
                 style="fill:#ffffff;fill-opacity:1;fill-rule:nonzero;stroke:#000000;stroke-width:3;stroke-miterlimit:4;stroke-opacity:1"
                 transform="translate(-80.998845,-105.83948)" />
              <path
                 sodipodi:open="true"
                 sodipodi:end="12.531133"
                 sodipodi:start="6.2546544"
                 transform="matrix(1,0,0,0.52452836,-54.371428,9.6063154)"
                 d="m 131.52071,168.54377 a 2.8284271,14.849242 0 1 1 -6e-4,-0.0995"
                 sodipodi:ry="14.849242"
                 sodipodi:rx="2.8284271"
                 sodipodi:cy="168.96738"
                 sodipodi:cx="128.69344"
                 id="path8705"
                 style="fill:#000000;fill-opacity:1;fill-rule:nonzero;stroke:#000000;stroke-width:3;stroke-miterlimit:4;stroke-opacity:1;stroke-dasharray:none"
                 sodipodi:type="arc" />
              <path
                 sodipodi:open="true"
                 sodipodi:end="12.531133"
                 sodipodi:start="6.2546544"
                 transform="matrix(1,0,0,0.52452836,-88.99885,6.944392)"
                 d="m 131.52071,168.54377 a 2.8284271,14.849242 0 1 1 -6e-4,-0.0995"
                 sodipodi:ry="14.849242"
                 sodipodi:rx="2.8284271"
                 sodipodi:cy="168.96738"
                 sodipodi:cx="128.69344"
                 id="path8705-1"
                 style="fill:#000000;fill-opacity:1;fill-rule:nonzero;stroke:#000000;stroke-width:3;stroke-miterlimit:4;stroke-opacity:1;stroke-dasharray:none"
                 sodipodi:type="arc" />
              <path
                 sodipodi:nodetypes="ccsc"
                 inkscape:connector-curvature="0"
                 id="path8725"
                 d="m 47.679329,108.89302 21.147576,0 c 0,0 -3.154849,18.77839 -13.315139,18.77839 -10.867396,0 -7.832437,-18.77839 -7.832437,-18.77839 z"
                 style="fill:none;stroke:#000000;stroke-width:3;stroke-linecap:butt;stroke-linejoin:miter;stroke-miterlimit:4;stroke-opacity:1;stroke-dasharray:none" />
              <path
                 sodipodi:nodetypes="ccccccccsc"
                 transform="translate(-170.0943,-105.83948)"
                 inkscape:connector-curvature="0"
                 id="path8730"
                 d="m 222.03153,244.6278 101.82337,0 -82.73149,16.97056 11.31371,130.10765 -33.94113,-82.7315 -16.97056,87.68124 -4.94974,-129.40054 -14.84925,79.90307 c 0,0 -7.07107,-103.23759 19.09189,-102.53048 26.16295,0.7071 21.2132,0 21.2132,0 z"
                 style="fill:#ffffff;stroke:#000000;stroke-width:3.00000001999999988;stroke-linecap:butt;stroke-linejoin:miter;stroke-opacity:1;stroke-miterlimit:4;stroke-dasharray:none;fill-opacity:1" />
            </g>
          </g>
        </g>
      </g>
    </g>
  </g>
</svg>
