<?xml version="1.0" encoding="UTF-8" standalone="no"?>
<!-- Created with Inkscape (http://www.inkscape.org/) -->

<svg
   xmlns:dc="http://purl.org/dc/elements/1.1/"
   xmlns:cc="http://creativecommons.org/ns#"
   xmlns:rdf="http://www.w3.org/1999/02/22-rdf-syntax-ns#"
   xmlns:svg="http://www.w3.org/2000/svg"
   xmlns="http://www.w3.org/2000/svg"
   xmlns:sodipodi="http://sodipodi.sourceforge.net/DTD/sodipodi-0.dtd"
   xmlns:inkscape="http://www.inkscape.org/namespaces/inkscape"
   width="430.21878"
   height="501.38101"
   id="svg2"
   version="1.1"
   inkscape:version="0.48.3.1 r9886"
   sodipodi:docname="gnu_bye.svg">
  <defs
     id="defs4" />
  <sodipodi:namedview
     id="base"
     pagecolor="#ffffff"
     bordercolor="#666666"
     borderopacity="1.0"
     inkscape:pageopacity="0.0"
     inkscape:pageshadow="2"
     inkscape:zoom="0.70710678"
     inkscape:cx="43.543868"
     inkscape:cy="260.39774"
     inkscape:document-units="px"
     inkscape:current-layer="layer1"
     showgrid="false"
     fit-margin-left="1"
     fit-margin-right="1"
     fit-margin-bottom="1"
     fit-margin-top="1"
     inkscape:window-width="1280"
     inkscape:window-height="748"
     inkscape:window-x="0"
     inkscape:window-y="31"
     inkscape:window-maximized="1"
     inkscape:snap-global="true"
     inkscape:snap-midpoints="false"
     inkscape:snap-object-midpoints="false" />
  <metadata
     id="metadata7">
    <rdf:RDF>
      <cc:Work
         rdf:about="">
        <dc:format>image/svg+xml</dc:format>
        <dc:type
           rdf:resource="http://purl.org/dc/dcmitype/StillImage" />
        <dc:title></dc:title>
      </cc:Work>
    </rdf:RDF>
  </metadata>
  <g
     inkscape:label="Layer 1"
     inkscape:groupmode="layer"
     id="layer1"
     transform="translate(-80.485284,170.34427)">
    <g
       transform="matrix(2.1974187,0,0,2.1974187,-48.992459,-342.67596)"
       id="layer1-0">
      <g
         transform="translate(32.142857,50.714286)"
         id="g3961">
        <path
           inkscape:transform-center-y="-27.753995"
           inkscape:transform-center-x="21.828672"
           style="fill:#2b2b31"
           inkscape:connector-curvature="0"
           d="M 98.098194,138.46296 C 81.051704,160.88268 12.635045,94.439321 30.048763,59.239342 83.798118,76.491539 117.52161,115.84129 98.098194,138.46296 z"
           id="path3893" />
        <path
           style="fill:#e1cc16"
           inkscape:connector-curvature="0"
           d="m 135.91968,232.85655 c 0,0 -15.23844,25.88118 -32.12072,22.21027 -16.882282,-3.67091 7.42747,-10.80644 7.42747,-10.80644 0,0 -16.670202,11.66692 -15.067612,0.0781 1.17823,-8.52001 1.22371,-5.62723 -0.78253,-7.2422 12.663142,-13.20363 35.990282,-33.33627 40.543352,-4.23998 z"
           id="path3899" />
        <path
           style="fill:#2b2b31"
           inkscape:transform-center-y="-26.477484"
           inkscape:transform-center-x="-24.72185"
           inkscape:connector-curvature="0"
           d="M 159.11007,142.39697 C 178.62042,162.70873 238.94566,88.840214 217.60063,55.876169 166.1888,79.189385 137.2155,122.15867 159.11347,142.40116 z"
           id="path3893-4" />
        <path
           style="fill:#3f4753;fill-rule:nonzero"
           inkscape:connector-curvature="0"
           transform="matrix(1.039604,0,0,1,-5.4172566,57.142858)"
           d="m 171.55,99.347 c 28.851,60.686 16.026,78.316 -35.041,78.571 -38.384,0.19231 -55.31,-11.612 -48.782,-67.5 2.6018,-22.278 13.326,-40.253 16.636,-85.14 0.51113,-6.9316 24.091,16.212 32.146,16.212 19.922,0 18.553,23.176 35.041,57.857 z"
           id="path2985" />
        <path
           sodipodi:nodetypes="csszzzc"
           style="fill:#e5e5e6"
           inkscape:connector-curvature="0"
           d="m 131.32044,124.07117 c -7.84375,7.17869 -7.34648,12.88836 -19.49129,23.90076 -11.58063,10.50083 -9.85975,38.17132 -13.016401,56.73031 -5.80288,34.117 15.407051,31.7971 52.083691,28.07786 36.67664,-3.71923 20.591,-75.04301 5.33313,-86.27279 -15.25788,-11.22979 -13.53218,-22.74564 -24.90813,-22.43614 -11.37595,0.3095 -0.001,0 -0.001,0 z"
           id="path3919" />
        <path
           sodipodi:nodetypes="cccscscc"
           style="fill:#e1cc16"
           inkscape:connector-curvature="0"
           d="m 160.74881,230.79164 c 0,0 -4.7137,-31.523 11.344,-34.996 15.054,-3.2563 3.32819,11.89856 3.32819,11.89856 0,0 9.82749,-17.26322 8.00949,-5.90322 -1.1816,7.3836 -0.21204,-2.29051 2.18198,-1.97411 -0.20109,0.92525 1.21265,1.57486 1.60398,2.90641 5.31159,18.07335 -9.74357,49.22708 -26.46772,28.06836 z"
           id="path3899-6" />
        <path
           sodipodi:nodetypes="zzzzz"
           style="fill:#3f4753;fill-rule:nonzero"
           inkscape:connector-curvature="0"
           d="m 169.24347,70.719042 c 7.13095,19.952822 -8.99755,53.657918 -41.071,48.779028 C 96.09902,114.61918 80.877026,89.394893 90.121271,65.379065 99.36552,41.363236 92.52147,27.597036 128.17247,28.183399 c 35.651,0.586364 33.94005,22.582821 41.071,42.535643 z"
           id="path3873" />
        <path
           sodipodi:nodetypes="cscccc"
           style="fill:#e1cc16"
           inkscape:connector-curvature="0"
           d="m 116.57576,80.823203 c 1.5164,-3.2622 8.31369,-7.347401 13.39579,-7.743101 7.995,-0.62247 14.70111,6.721701 15.59411,9.043301 0.26786,7.857104 -3.90011,15.646107 -16.34311,14.947107 -12.443,-0.69928 -12.64679,-16.247107 -12.64679,-16.247107 z"
           id="path3889" />
        <path
           style="fill:none;stroke:#000000;stroke-width:3;stroke-linecap:butt;stroke-linejoin:miter;stroke-miterlimit:4;stroke-opacity:1;stroke-dasharray:none"
           d="m 144.73744,73.898764 c 0,0 0.95348,-8.459732 8.17187,-8.552319 7.2184,-0.09259 9.46768,9.412785 9.46768,9.412785"
           id="path10942"
           inkscape:connector-curvature="0"
           sodipodi:nodetypes="czc" />
        <path
           sodipodi:nodetypes="czc"
           inkscape:connector-curvature="0"
           id="path10432"
           d="m 97.562964,72.75923 c 0,0 0.95348,-8.459732 8.171876,-8.552319 7.21839,-0.09259 9.46768,9.412785 9.46768,9.412785"
           style="fill:none;stroke:#000000;stroke-width:3;stroke-linecap:butt;stroke-linejoin:miter;stroke-miterlimit:4;stroke-opacity:1;stroke-dasharray:none" />
      </g>
    </g>
  </g>
</svg>
