<?xml version="1.0" encoding="UTF-8" standalone="no"?>
<!-- Created with Inkscape (http://www.inkscape.org/) -->

<svg
   xmlns:dc="http://purl.org/dc/elements/1.1/"
   xmlns:cc="http://creativecommons.org/ns#"
   xmlns:rdf="http://www.w3.org/1999/02/22-rdf-syntax-ns#"
   xmlns:svg="http://www.w3.org/2000/svg"
   xmlns="http://www.w3.org/2000/svg"
   xmlns:sodipodi="http://sodipodi.sourceforge.net/DTD/sodipodi-0.dtd"
   xmlns:inkscape="http://www.inkscape.org/namespaces/inkscape"
   width="157.1496"
   height="237.05266"
   id="svg8756"
   version="1.1"
   inkscape:version="0.48.3.1 r9886"
   sodipodi:docname="New document 58">
  <defs
     id="defs8758" />
  <sodipodi:namedview
     id="base"
     pagecolor="#ffffff"
     bordercolor="#666666"
     borderopacity="1.0"
     inkscape:pageopacity="0.0"
     inkscape:pageshadow="2"
     inkscape:zoom="0.35"
     inkscape:cx="78.574799"
     inkscape:cy="118.52634"
     inkscape:document-units="px"
     inkscape:current-layer="layer1"
     showgrid="false"
     fit-margin-top="0"
     fit-margin-left="0"
     fit-margin-right="0"
     fit-margin-bottom="0"
     inkscape:window-width="418"
     inkscape:window-height="436"
     inkscape:window-x="8"
     inkscape:window-y="31"
     inkscape:window-maximized="0" />
  <metadata
     id="metadata8761">
    <rdf:RDF>
      <cc:Work
         rdf:about="">
        <dc:format>image/svg+xml</dc:format>
        <dc:type
           rdf:resource="http://purl.org/dc/dcmitype/StillImage" />
        <dc:title></dc:title>
      </cc:Work>
    </rdf:RDF>
  </metadata>
  <g
     inkscape:label="Layer 1"
     inkscape:groupmode="layer"
     id="layer1"
     transform="translate(-296.4252,-413.83586)">
    <g
       transform="translate(298.3142,358.57225)"
       id="g8733">
      <path
         sodipodi:nodetypes="ssscs"
         inkscape:connector-curvature="0"
         id="path8703"
         d="m 122.79232,244.6111 c -22.64119,0.64615 -41.519304,-17.18435 -42.165453,-39.82554 -0.646149,-22.64119 17.184355,-41.51931 39.825543,-42.16546 22.53389,-0.64309 41.36249,17.02156 42.16107,39.68808 0.65054,22.77865 -17.17997,41.65677 -39.82116,42.30292 z"
         style="fill:#ffffff;fill-opacity:1;fill-rule:nonzero;stroke:#000000;stroke-width:3;stroke-miterlimit:4;stroke-opacity:1"
         transform="translate(-80.998845,-105.83948)" />
      <path
         sodipodi:open="true"
         sodipodi:end="12.531133"
         sodipodi:start="6.2546544"
         transform="matrix(1,0,0,0.52452836,-54.371428,9.6063154)"
         d="m 131.52071,168.54377 c 0.0446,8.19767 -1.18513,15.03286 -2.74659,15.26681 -1.56146,0.23395 -2.8634,-6.22193 -2.90796,-14.4196 -0.0446,-8.19767 1.18513,-15.03285 2.74659,-15.2668 1.55406,-0.23284 2.85258,6.16298 2.90736,14.32005"
         sodipodi:ry="14.849242"
         sodipodi:rx="2.8284271"
         sodipodi:cy="168.96738"
         sodipodi:cx="128.69344"
         id="path8705"
         style="fill:#000000;fill-opacity:1;fill-rule:nonzero;stroke:#000000;stroke-width:3;stroke-miterlimit:4;stroke-opacity:1;stroke-dasharray:none"
         sodipodi:type="arc" />
      <path
         sodipodi:open="true"
         sodipodi:end="12.531133"
         sodipodi:start="6.2546544"
         transform="matrix(1,0,0,0.52452836,-88.99885,6.944392)"
         d="m 131.52071,168.54377 c 0.0446,8.19767 -1.18513,15.03286 -2.74659,15.26681 -1.56146,0.23395 -2.8634,-6.22193 -2.90796,-14.4196 -0.0446,-8.19767 1.18513,-15.03285 2.74659,-15.2668 1.55406,-0.23284 2.85258,6.16298 2.90736,14.32005"
         sodipodi:ry="14.849242"
         sodipodi:rx="2.8284271"
         sodipodi:cy="168.96738"
         sodipodi:cx="128.69344"
         id="path8705-1"
         style="fill:#000000;fill-opacity:1;fill-rule:nonzero;stroke:#000000;stroke-width:3;stroke-miterlimit:4;stroke-opacity:1;stroke-dasharray:none"
         sodipodi:type="arc" />
      <path
         sodipodi:nodetypes="ccsc"
         inkscape:connector-curvature="0"
         id="path8725"
         d="m 47.679329,108.89302 21.147576,0 c 0,0 -3.154849,18.77839 -13.315139,18.77839 -10.867396,0 -7.832437,-18.77839 -7.832437,-18.77839 z"
         style="fill:none;stroke:#000000;stroke-width:3;stroke-linecap:butt;stroke-linejoin:miter;stroke-miterlimit:4;stroke-opacity:1;stroke-dasharray:none" />
      <path
         sodipodi:nodetypes="ccccccccsc"
         transform="translate(-170.0943,-105.83948)"
         inkscape:connector-curvature="0"
         id="path8730"
         d="m 222.03153,244.6278 101.82337,0 -82.73149,16.97056 11.31371,130.10765 -33.94113,-82.7315 -16.97056,87.68124 -4.94974,-129.40054 -14.84925,79.90307 c 0,0 -7.07107,-103.23759 19.09189,-102.53048 26.16295,0.7071 21.2132,0 21.2132,0 z"
         style="fill:#ffffff;fill-opacity:1;stroke:#000000;stroke-width:3;stroke-linecap:butt;stroke-linejoin:miter;stroke-miterlimit:4;stroke-opacity:1;stroke-dasharray:none" />
    </g>
  </g>
</svg>
